G04 EAGLE Gerber RS-274X export*
G75*
%MOMM*%
%FSLAX34Y34*%
%LPD*%
%INSoldermask Top*%
%IPPOS*%
%AMOC8*
5,1,8,0,0,1.08239X$1,22.5*%
G01*
%ADD10C,0.838200*%
%ADD11C,3.505200*%
%ADD12R,1.303200X1.203200*%
%ADD13C,0.505344*%
%ADD14R,2.703200X1.703200*%
%ADD15R,1.703200X2.703200*%
%ADD16R,1.203200X1.303200*%
%ADD17R,1.703200X4.203200*%
%ADD18R,2.703200X1.403200*%
%ADD19C,2.082800*%
%ADD20C,1.203200*%
%ADD21C,1.270000*%
%ADD22C,1.703200*%


D10*
X373380Y7620D03*
X6350Y500380D03*
D11*
X25400Y482600D03*
X25400Y25400D03*
X355600Y482600D03*
X355600Y25400D03*
D12*
X334400Y62230D03*
X351400Y62230D03*
X334400Y78740D03*
X351400Y78740D03*
X334400Y99060D03*
X351400Y99060D03*
D13*
X185220Y16190D02*
X185220Y9210D01*
X178240Y9210D01*
X178240Y16190D01*
X185220Y16190D01*
X185220Y14010D02*
X178240Y14010D01*
X202760Y16190D02*
X202760Y9210D01*
X195780Y9210D01*
X195780Y16190D01*
X202760Y16190D01*
X202760Y14010D02*
X195780Y14010D01*
D14*
X69500Y63600D03*
X69500Y89000D03*
X69500Y114400D03*
X69500Y139800D03*
X69500Y165200D03*
X69500Y190600D03*
X69500Y216000D03*
X69500Y241400D03*
X69500Y266800D03*
X311500Y63600D03*
X311500Y89000D03*
X311500Y114400D03*
X311500Y139800D03*
X311500Y165200D03*
X311500Y190600D03*
X311500Y216000D03*
X311500Y241400D03*
X311500Y266800D03*
D15*
X260500Y424600D03*
X235100Y424600D03*
X145900Y424600D03*
X120500Y424600D03*
D16*
X38100Y105800D03*
X38100Y122800D03*
D17*
X234950Y472440D03*
X260350Y472440D03*
X285750Y472440D03*
D16*
X342900Y199000D03*
X342900Y182000D03*
X342900Y275200D03*
X342900Y258200D03*
X342900Y237100D03*
X342900Y220100D03*
D12*
X220100Y12700D03*
X237100Y12700D03*
D18*
X342900Y160010D03*
X342900Y127010D03*
D19*
X368300Y266700D03*
X368300Y241300D03*
X368300Y215900D03*
X368300Y190500D03*
X368300Y165100D03*
X368300Y139700D03*
X368300Y114300D03*
X368300Y88900D03*
X368300Y63500D03*
X12700Y266700D03*
X12700Y241300D03*
X12700Y215900D03*
X12700Y190500D03*
X12700Y165100D03*
X12700Y139700D03*
X12700Y114300D03*
X12700Y88900D03*
X12700Y63500D03*
D10*
X759460Y7620D03*
X392430Y500380D03*
D11*
X411480Y482600D03*
X411480Y25400D03*
X741680Y482600D03*
X741680Y25400D03*
D12*
X720480Y62230D03*
X737480Y62230D03*
X720480Y78740D03*
X737480Y78740D03*
X720480Y99060D03*
X737480Y99060D03*
D13*
X571300Y16190D02*
X571300Y9210D01*
X564320Y9210D01*
X564320Y16190D01*
X571300Y16190D01*
X571300Y14010D02*
X564320Y14010D01*
X588840Y16190D02*
X588840Y9210D01*
X581860Y9210D01*
X581860Y16190D01*
X588840Y16190D01*
X588840Y14010D02*
X581860Y14010D01*
D14*
X455580Y63600D03*
X455580Y89000D03*
X455580Y114400D03*
X455580Y139800D03*
X455580Y165200D03*
X455580Y190600D03*
X455580Y216000D03*
X455580Y241400D03*
X455580Y266800D03*
X697580Y63600D03*
X697580Y89000D03*
X697580Y114400D03*
X697580Y139800D03*
X697580Y165200D03*
X697580Y190600D03*
X697580Y216000D03*
X697580Y241400D03*
X697580Y266800D03*
D15*
X646580Y424600D03*
X621180Y424600D03*
X531980Y424600D03*
X506580Y424600D03*
D16*
X424180Y105800D03*
X424180Y122800D03*
D17*
X621030Y472440D03*
X646430Y472440D03*
X671830Y472440D03*
D16*
X728980Y199000D03*
X728980Y182000D03*
X728980Y275200D03*
X728980Y258200D03*
X728980Y237100D03*
X728980Y220100D03*
D12*
X606180Y12700D03*
X623180Y12700D03*
D18*
X728980Y160010D03*
X728980Y127010D03*
D19*
X754380Y266700D03*
X754380Y241300D03*
X754380Y215900D03*
X754380Y190500D03*
X754380Y165100D03*
X754380Y139700D03*
X754380Y114300D03*
X754380Y88900D03*
X754380Y63500D03*
X398780Y266700D03*
X398780Y241300D03*
X398780Y215900D03*
X398780Y190500D03*
X398780Y165100D03*
X398780Y139700D03*
X398780Y114300D03*
X398780Y88900D03*
X398780Y63500D03*
D10*
X1145540Y7620D03*
X778510Y500380D03*
D11*
X797560Y482600D03*
X797560Y25400D03*
X1127760Y482600D03*
X1127760Y25400D03*
D12*
X1106560Y62230D03*
X1123560Y62230D03*
X1106560Y78740D03*
X1123560Y78740D03*
X1106560Y99060D03*
X1123560Y99060D03*
D13*
X957380Y16190D02*
X957380Y9210D01*
X950400Y9210D01*
X950400Y16190D01*
X957380Y16190D01*
X957380Y14010D02*
X950400Y14010D01*
X974920Y16190D02*
X974920Y9210D01*
X967940Y9210D01*
X967940Y16190D01*
X974920Y16190D01*
X974920Y14010D02*
X967940Y14010D01*
D14*
X841660Y63600D03*
X841660Y89000D03*
X841660Y114400D03*
X841660Y139800D03*
X841660Y165200D03*
X841660Y190600D03*
X841660Y216000D03*
X841660Y241400D03*
X841660Y266800D03*
X1083660Y63600D03*
X1083660Y89000D03*
X1083660Y114400D03*
X1083660Y139800D03*
X1083660Y165200D03*
X1083660Y190600D03*
X1083660Y216000D03*
X1083660Y241400D03*
X1083660Y266800D03*
D15*
X1032660Y424600D03*
X1007260Y424600D03*
X918060Y424600D03*
X892660Y424600D03*
D16*
X810260Y105800D03*
X810260Y122800D03*
D17*
X1007110Y472440D03*
X1032510Y472440D03*
X1057910Y472440D03*
D16*
X1115060Y199000D03*
X1115060Y182000D03*
X1115060Y275200D03*
X1115060Y258200D03*
X1115060Y237100D03*
X1115060Y220100D03*
D12*
X992260Y12700D03*
X1009260Y12700D03*
D18*
X1115060Y160010D03*
X1115060Y127010D03*
D19*
X1140460Y266700D03*
X1140460Y241300D03*
X1140460Y215900D03*
X1140460Y190500D03*
X1140460Y165100D03*
X1140460Y139700D03*
X1140460Y114300D03*
X1140460Y88900D03*
X1140460Y63500D03*
X784860Y266700D03*
X784860Y241300D03*
X784860Y215900D03*
X784860Y190500D03*
X784860Y165100D03*
X784860Y139700D03*
X784860Y114300D03*
X784860Y88900D03*
X784860Y63500D03*
D10*
X373380Y520700D03*
X6350Y1013460D03*
D11*
X25400Y995680D03*
X25400Y538480D03*
X355600Y995680D03*
X355600Y538480D03*
D12*
X334400Y575310D03*
X351400Y575310D03*
X334400Y591820D03*
X351400Y591820D03*
X334400Y612140D03*
X351400Y612140D03*
D13*
X185220Y529270D02*
X185220Y522290D01*
X178240Y522290D01*
X178240Y529270D01*
X185220Y529270D01*
X185220Y527090D02*
X178240Y527090D01*
X202760Y529270D02*
X202760Y522290D01*
X195780Y522290D01*
X195780Y529270D01*
X202760Y529270D01*
X202760Y527090D02*
X195780Y527090D01*
D14*
X69500Y576680D03*
X69500Y602080D03*
X69500Y627480D03*
X69500Y652880D03*
X69500Y678280D03*
X69500Y703680D03*
X69500Y729080D03*
X69500Y754480D03*
X69500Y779880D03*
X311500Y576680D03*
X311500Y602080D03*
X311500Y627480D03*
X311500Y652880D03*
X311500Y678280D03*
X311500Y703680D03*
X311500Y729080D03*
X311500Y754480D03*
X311500Y779880D03*
D15*
X260500Y937680D03*
X235100Y937680D03*
X145900Y937680D03*
X120500Y937680D03*
D16*
X38100Y618880D03*
X38100Y635880D03*
D17*
X234950Y985520D03*
X260350Y985520D03*
X285750Y985520D03*
D16*
X342900Y712080D03*
X342900Y695080D03*
X342900Y788280D03*
X342900Y771280D03*
X342900Y750180D03*
X342900Y733180D03*
D12*
X220100Y525780D03*
X237100Y525780D03*
D18*
X342900Y673090D03*
X342900Y640090D03*
D19*
X368300Y779780D03*
X368300Y754380D03*
X368300Y728980D03*
X368300Y703580D03*
X368300Y678180D03*
X368300Y652780D03*
X368300Y627380D03*
X368300Y601980D03*
X368300Y576580D03*
X12700Y779780D03*
X12700Y754380D03*
X12700Y728980D03*
X12700Y703580D03*
X12700Y678180D03*
X12700Y652780D03*
X12700Y627380D03*
X12700Y601980D03*
X12700Y576580D03*
D10*
X759460Y520700D03*
X392430Y1013460D03*
D11*
X411480Y995680D03*
X411480Y538480D03*
X741680Y995680D03*
X741680Y538480D03*
D12*
X720480Y575310D03*
X737480Y575310D03*
X720480Y591820D03*
X737480Y591820D03*
X720480Y612140D03*
X737480Y612140D03*
D13*
X571300Y529270D02*
X571300Y522290D01*
X564320Y522290D01*
X564320Y529270D01*
X571300Y529270D01*
X571300Y527090D02*
X564320Y527090D01*
X588840Y529270D02*
X588840Y522290D01*
X581860Y522290D01*
X581860Y529270D01*
X588840Y529270D01*
X588840Y527090D02*
X581860Y527090D01*
D14*
X455580Y576680D03*
X455580Y602080D03*
X455580Y627480D03*
X455580Y652880D03*
X455580Y678280D03*
X455580Y703680D03*
X455580Y729080D03*
X455580Y754480D03*
X455580Y779880D03*
X697580Y576680D03*
X697580Y602080D03*
X697580Y627480D03*
X697580Y652880D03*
X697580Y678280D03*
X697580Y703680D03*
X697580Y729080D03*
X697580Y754480D03*
X697580Y779880D03*
D15*
X646580Y937680D03*
X621180Y937680D03*
X531980Y937680D03*
X506580Y937680D03*
D16*
X424180Y618880D03*
X424180Y635880D03*
D17*
X621030Y985520D03*
X646430Y985520D03*
X671830Y985520D03*
D16*
X728980Y712080D03*
X728980Y695080D03*
X728980Y788280D03*
X728980Y771280D03*
X728980Y750180D03*
X728980Y733180D03*
D12*
X606180Y525780D03*
X623180Y525780D03*
D18*
X728980Y673090D03*
X728980Y640090D03*
D19*
X754380Y779780D03*
X754380Y754380D03*
X754380Y728980D03*
X754380Y703580D03*
X754380Y678180D03*
X754380Y652780D03*
X754380Y627380D03*
X754380Y601980D03*
X754380Y576580D03*
X398780Y779780D03*
X398780Y754380D03*
X398780Y728980D03*
X398780Y703580D03*
X398780Y678180D03*
X398780Y652780D03*
X398780Y627380D03*
X398780Y601980D03*
X398780Y576580D03*
D10*
X1145540Y520700D03*
X778510Y1013460D03*
D11*
X797560Y995680D03*
X797560Y538480D03*
X1127760Y995680D03*
X1127760Y538480D03*
D12*
X1106560Y575310D03*
X1123560Y575310D03*
X1106560Y591820D03*
X1123560Y591820D03*
X1106560Y612140D03*
X1123560Y612140D03*
D13*
X957380Y529270D02*
X957380Y522290D01*
X950400Y522290D01*
X950400Y529270D01*
X957380Y529270D01*
X957380Y527090D02*
X950400Y527090D01*
X974920Y529270D02*
X974920Y522290D01*
X967940Y522290D01*
X967940Y529270D01*
X974920Y529270D01*
X974920Y527090D02*
X967940Y527090D01*
D14*
X841660Y576680D03*
X841660Y602080D03*
X841660Y627480D03*
X841660Y652880D03*
X841660Y678280D03*
X841660Y703680D03*
X841660Y729080D03*
X841660Y754480D03*
X841660Y779880D03*
X1083660Y576680D03*
X1083660Y602080D03*
X1083660Y627480D03*
X1083660Y652880D03*
X1083660Y678280D03*
X1083660Y703680D03*
X1083660Y729080D03*
X1083660Y754480D03*
X1083660Y779880D03*
D15*
X1032660Y937680D03*
X1007260Y937680D03*
X918060Y937680D03*
X892660Y937680D03*
D16*
X810260Y618880D03*
X810260Y635880D03*
D17*
X1007110Y985520D03*
X1032510Y985520D03*
X1057910Y985520D03*
D16*
X1115060Y712080D03*
X1115060Y695080D03*
X1115060Y788280D03*
X1115060Y771280D03*
X1115060Y750180D03*
X1115060Y733180D03*
D12*
X992260Y525780D03*
X1009260Y525780D03*
D18*
X1115060Y673090D03*
X1115060Y640090D03*
D19*
X1140460Y779780D03*
X1140460Y754380D03*
X1140460Y728980D03*
X1140460Y703580D03*
X1140460Y678180D03*
X1140460Y652780D03*
X1140460Y627380D03*
X1140460Y601980D03*
X1140460Y576580D03*
X784860Y779780D03*
X784860Y754380D03*
X784860Y728980D03*
X784860Y703580D03*
X784860Y678180D03*
X784860Y652780D03*
X784860Y627380D03*
X784860Y601980D03*
X784860Y576580D03*
D10*
X373380Y1033780D03*
X6350Y1526540D03*
D11*
X25400Y1508760D03*
X25400Y1051560D03*
X355600Y1508760D03*
X355600Y1051560D03*
D12*
X334400Y1088390D03*
X351400Y1088390D03*
X334400Y1104900D03*
X351400Y1104900D03*
X334400Y1125220D03*
X351400Y1125220D03*
D13*
X185220Y1042350D02*
X185220Y1035370D01*
X178240Y1035370D01*
X178240Y1042350D01*
X185220Y1042350D01*
X185220Y1040170D02*
X178240Y1040170D01*
X202760Y1042350D02*
X202760Y1035370D01*
X195780Y1035370D01*
X195780Y1042350D01*
X202760Y1042350D01*
X202760Y1040170D02*
X195780Y1040170D01*
D14*
X69500Y1089760D03*
X69500Y1115160D03*
X69500Y1140560D03*
X69500Y1165960D03*
X69500Y1191360D03*
X69500Y1216760D03*
X69500Y1242160D03*
X69500Y1267560D03*
X69500Y1292960D03*
X311500Y1089760D03*
X311500Y1115160D03*
X311500Y1140560D03*
X311500Y1165960D03*
X311500Y1191360D03*
X311500Y1216760D03*
X311500Y1242160D03*
X311500Y1267560D03*
X311500Y1292960D03*
D15*
X260500Y1450760D03*
X235100Y1450760D03*
X145900Y1450760D03*
X120500Y1450760D03*
D16*
X38100Y1131960D03*
X38100Y1148960D03*
D17*
X234950Y1498600D03*
X260350Y1498600D03*
X285750Y1498600D03*
D16*
X342900Y1225160D03*
X342900Y1208160D03*
X342900Y1301360D03*
X342900Y1284360D03*
X342900Y1263260D03*
X342900Y1246260D03*
D12*
X220100Y1038860D03*
X237100Y1038860D03*
D18*
X342900Y1186170D03*
X342900Y1153170D03*
D19*
X368300Y1292860D03*
X368300Y1267460D03*
X368300Y1242060D03*
X368300Y1216660D03*
X368300Y1191260D03*
X368300Y1165860D03*
X368300Y1140460D03*
X368300Y1115060D03*
X368300Y1089660D03*
X12700Y1292860D03*
X12700Y1267460D03*
X12700Y1242060D03*
X12700Y1216660D03*
X12700Y1191260D03*
X12700Y1165860D03*
X12700Y1140460D03*
X12700Y1115060D03*
X12700Y1089660D03*
D10*
X759460Y1033780D03*
X392430Y1526540D03*
D11*
X411480Y1508760D03*
X411480Y1051560D03*
X741680Y1508760D03*
X741680Y1051560D03*
D12*
X720480Y1088390D03*
X737480Y1088390D03*
X720480Y1104900D03*
X737480Y1104900D03*
X720480Y1125220D03*
X737480Y1125220D03*
D13*
X571300Y1042350D02*
X571300Y1035370D01*
X564320Y1035370D01*
X564320Y1042350D01*
X571300Y1042350D01*
X571300Y1040170D02*
X564320Y1040170D01*
X588840Y1042350D02*
X588840Y1035370D01*
X581860Y1035370D01*
X581860Y1042350D01*
X588840Y1042350D01*
X588840Y1040170D02*
X581860Y1040170D01*
D14*
X455580Y1089760D03*
X455580Y1115160D03*
X455580Y1140560D03*
X455580Y1165960D03*
X455580Y1191360D03*
X455580Y1216760D03*
X455580Y1242160D03*
X455580Y1267560D03*
X455580Y1292960D03*
X697580Y1089760D03*
X697580Y1115160D03*
X697580Y1140560D03*
X697580Y1165960D03*
X697580Y1191360D03*
X697580Y1216760D03*
X697580Y1242160D03*
X697580Y1267560D03*
X697580Y1292960D03*
D15*
X646580Y1450760D03*
X621180Y1450760D03*
X531980Y1450760D03*
X506580Y1450760D03*
D16*
X424180Y1131960D03*
X424180Y1148960D03*
D17*
X621030Y1498600D03*
X646430Y1498600D03*
X671830Y1498600D03*
D16*
X728980Y1225160D03*
X728980Y1208160D03*
X728980Y1301360D03*
X728980Y1284360D03*
X728980Y1263260D03*
X728980Y1246260D03*
D12*
X606180Y1038860D03*
X623180Y1038860D03*
D18*
X728980Y1186170D03*
X728980Y1153170D03*
D19*
X754380Y1292860D03*
X754380Y1267460D03*
X754380Y1242060D03*
X754380Y1216660D03*
X754380Y1191260D03*
X754380Y1165860D03*
X754380Y1140460D03*
X754380Y1115060D03*
X754380Y1089660D03*
X398780Y1292860D03*
X398780Y1267460D03*
X398780Y1242060D03*
X398780Y1216660D03*
X398780Y1191260D03*
X398780Y1165860D03*
X398780Y1140460D03*
X398780Y1115060D03*
X398780Y1089660D03*
D10*
X1145540Y1033780D03*
X778510Y1526540D03*
D11*
X797560Y1508760D03*
X797560Y1051560D03*
X1127760Y1508760D03*
X1127760Y1051560D03*
D12*
X1106560Y1088390D03*
X1123560Y1088390D03*
X1106560Y1104900D03*
X1123560Y1104900D03*
X1106560Y1125220D03*
X1123560Y1125220D03*
D13*
X957380Y1042350D02*
X957380Y1035370D01*
X950400Y1035370D01*
X950400Y1042350D01*
X957380Y1042350D01*
X957380Y1040170D02*
X950400Y1040170D01*
X974920Y1042350D02*
X974920Y1035370D01*
X967940Y1035370D01*
X967940Y1042350D01*
X974920Y1042350D01*
X974920Y1040170D02*
X967940Y1040170D01*
D14*
X841660Y1089760D03*
X841660Y1115160D03*
X841660Y1140560D03*
X841660Y1165960D03*
X841660Y1191360D03*
X841660Y1216760D03*
X841660Y1242160D03*
X841660Y1267560D03*
X841660Y1292960D03*
X1083660Y1089760D03*
X1083660Y1115160D03*
X1083660Y1140560D03*
X1083660Y1165960D03*
X1083660Y1191360D03*
X1083660Y1216760D03*
X1083660Y1242160D03*
X1083660Y1267560D03*
X1083660Y1292960D03*
D15*
X1032660Y1450760D03*
X1007260Y1450760D03*
X918060Y1450760D03*
X892660Y1450760D03*
D16*
X810260Y1131960D03*
X810260Y1148960D03*
D17*
X1007110Y1498600D03*
X1032510Y1498600D03*
X1057910Y1498600D03*
D16*
X1115060Y1225160D03*
X1115060Y1208160D03*
X1115060Y1301360D03*
X1115060Y1284360D03*
X1115060Y1263260D03*
X1115060Y1246260D03*
D12*
X992260Y1038860D03*
X1009260Y1038860D03*
D18*
X1115060Y1186170D03*
X1115060Y1153170D03*
D19*
X1140460Y1292860D03*
X1140460Y1267460D03*
X1140460Y1242060D03*
X1140460Y1216660D03*
X1140460Y1191260D03*
X1140460Y1165860D03*
X1140460Y1140460D03*
X1140460Y1115060D03*
X1140460Y1089660D03*
X784860Y1292860D03*
X784860Y1267460D03*
X784860Y1242060D03*
X784860Y1216660D03*
X784860Y1191260D03*
X784860Y1165860D03*
X784860Y1140460D03*
X784860Y1115060D03*
X784860Y1089660D03*
D20*
X-26238Y1507490D03*
X1179398Y1507490D03*
D21*
X-35293Y63500D02*
X-35290Y63722D01*
X-35282Y63944D01*
X-35268Y64166D01*
X-35249Y64388D01*
X-35225Y64608D01*
X-35195Y64829D01*
X-35160Y65048D01*
X-35119Y65267D01*
X-35073Y65484D01*
X-35022Y65700D01*
X-34965Y65915D01*
X-34903Y66129D01*
X-34836Y66340D01*
X-34764Y66551D01*
X-34686Y66759D01*
X-34604Y66965D01*
X-34516Y67169D01*
X-34424Y67372D01*
X-34326Y67571D01*
X-34224Y67768D01*
X-34117Y67963D01*
X-34005Y68155D01*
X-33888Y68344D01*
X-33767Y68531D01*
X-33641Y68714D01*
X-33511Y68894D01*
X-33376Y69071D01*
X-33238Y69244D01*
X-33095Y69414D01*
X-32947Y69581D01*
X-32796Y69744D01*
X-32641Y69903D01*
X-32482Y70058D01*
X-32319Y70209D01*
X-32152Y70357D01*
X-31982Y70500D01*
X-31809Y70638D01*
X-31632Y70773D01*
X-31452Y70903D01*
X-31269Y71029D01*
X-31082Y71150D01*
X-30893Y71267D01*
X-30701Y71379D01*
X-30506Y71486D01*
X-30309Y71588D01*
X-30110Y71686D01*
X-29907Y71778D01*
X-29703Y71866D01*
X-29497Y71948D01*
X-29289Y72026D01*
X-29078Y72098D01*
X-28867Y72165D01*
X-28653Y72227D01*
X-28438Y72284D01*
X-28222Y72335D01*
X-28005Y72381D01*
X-27786Y72422D01*
X-27567Y72457D01*
X-27346Y72487D01*
X-27126Y72511D01*
X-26904Y72530D01*
X-26682Y72544D01*
X-26460Y72552D01*
X-26238Y72555D01*
X-26016Y72552D01*
X-25794Y72544D01*
X-25572Y72530D01*
X-25350Y72511D01*
X-25130Y72487D01*
X-24909Y72457D01*
X-24690Y72422D01*
X-24471Y72381D01*
X-24254Y72335D01*
X-24038Y72284D01*
X-23823Y72227D01*
X-23609Y72165D01*
X-23398Y72098D01*
X-23187Y72026D01*
X-22979Y71948D01*
X-22773Y71866D01*
X-22569Y71778D01*
X-22366Y71686D01*
X-22167Y71588D01*
X-21970Y71486D01*
X-21775Y71379D01*
X-21583Y71267D01*
X-21394Y71150D01*
X-21207Y71029D01*
X-21024Y70903D01*
X-20844Y70773D01*
X-20667Y70638D01*
X-20494Y70500D01*
X-20324Y70357D01*
X-20157Y70209D01*
X-19994Y70058D01*
X-19835Y69903D01*
X-19680Y69744D01*
X-19529Y69581D01*
X-19381Y69414D01*
X-19238Y69244D01*
X-19100Y69071D01*
X-18965Y68894D01*
X-18835Y68714D01*
X-18709Y68531D01*
X-18588Y68344D01*
X-18471Y68155D01*
X-18359Y67963D01*
X-18252Y67768D01*
X-18150Y67571D01*
X-18052Y67372D01*
X-17960Y67169D01*
X-17872Y66965D01*
X-17790Y66759D01*
X-17712Y66551D01*
X-17640Y66340D01*
X-17573Y66129D01*
X-17511Y65915D01*
X-17454Y65700D01*
X-17403Y65484D01*
X-17357Y65267D01*
X-17316Y65048D01*
X-17281Y64829D01*
X-17251Y64608D01*
X-17227Y64388D01*
X-17208Y64166D01*
X-17194Y63944D01*
X-17186Y63722D01*
X-17183Y63500D01*
X-17186Y63278D01*
X-17194Y63056D01*
X-17208Y62834D01*
X-17227Y62612D01*
X-17251Y62392D01*
X-17281Y62171D01*
X-17316Y61952D01*
X-17357Y61733D01*
X-17403Y61516D01*
X-17454Y61300D01*
X-17511Y61085D01*
X-17573Y60871D01*
X-17640Y60660D01*
X-17712Y60449D01*
X-17790Y60241D01*
X-17872Y60035D01*
X-17960Y59831D01*
X-18052Y59628D01*
X-18150Y59429D01*
X-18252Y59232D01*
X-18359Y59037D01*
X-18471Y58845D01*
X-18588Y58656D01*
X-18709Y58469D01*
X-18835Y58286D01*
X-18965Y58106D01*
X-19100Y57929D01*
X-19238Y57756D01*
X-19381Y57586D01*
X-19529Y57419D01*
X-19680Y57256D01*
X-19835Y57097D01*
X-19994Y56942D01*
X-20157Y56791D01*
X-20324Y56643D01*
X-20494Y56500D01*
X-20667Y56362D01*
X-20844Y56227D01*
X-21024Y56097D01*
X-21207Y55971D01*
X-21394Y55850D01*
X-21583Y55733D01*
X-21775Y55621D01*
X-21970Y55514D01*
X-22167Y55412D01*
X-22366Y55314D01*
X-22569Y55222D01*
X-22773Y55134D01*
X-22979Y55052D01*
X-23187Y54974D01*
X-23398Y54902D01*
X-23609Y54835D01*
X-23823Y54773D01*
X-24038Y54716D01*
X-24254Y54665D01*
X-24471Y54619D01*
X-24690Y54578D01*
X-24909Y54543D01*
X-25130Y54513D01*
X-25350Y54489D01*
X-25572Y54470D01*
X-25794Y54456D01*
X-26016Y54448D01*
X-26238Y54445D01*
X-26460Y54448D01*
X-26682Y54456D01*
X-26904Y54470D01*
X-27126Y54489D01*
X-27346Y54513D01*
X-27567Y54543D01*
X-27786Y54578D01*
X-28005Y54619D01*
X-28222Y54665D01*
X-28438Y54716D01*
X-28653Y54773D01*
X-28867Y54835D01*
X-29078Y54902D01*
X-29289Y54974D01*
X-29497Y55052D01*
X-29703Y55134D01*
X-29907Y55222D01*
X-30110Y55314D01*
X-30309Y55412D01*
X-30506Y55514D01*
X-30701Y55621D01*
X-30893Y55733D01*
X-31082Y55850D01*
X-31269Y55971D01*
X-31452Y56097D01*
X-31632Y56227D01*
X-31809Y56362D01*
X-31982Y56500D01*
X-32152Y56643D01*
X-32319Y56791D01*
X-32482Y56942D01*
X-32641Y57097D01*
X-32796Y57256D01*
X-32947Y57419D01*
X-33095Y57586D01*
X-33238Y57756D01*
X-33376Y57929D01*
X-33511Y58106D01*
X-33641Y58286D01*
X-33767Y58469D01*
X-33888Y58656D01*
X-34005Y58845D01*
X-34117Y59037D01*
X-34224Y59232D01*
X-34326Y59429D01*
X-34424Y59628D01*
X-34516Y59831D01*
X-34604Y60035D01*
X-34686Y60241D01*
X-34764Y60449D01*
X-34836Y60660D01*
X-34903Y60871D01*
X-34965Y61085D01*
X-35022Y61300D01*
X-35073Y61516D01*
X-35119Y61733D01*
X-35160Y61952D01*
X-35195Y62171D01*
X-35225Y62392D01*
X-35249Y62612D01*
X-35268Y62834D01*
X-35282Y63056D01*
X-35290Y63278D01*
X-35293Y63500D01*
D22*
X-26238Y63500D03*
M02*
