M48
;GenerationSoftware,Autodesk,EAGLE,9.6.2*%
;CreationDate,2021-07-21T14:00:40Z*%
FMAT,2
ICI,OFF
METRIC,TZ,000.000
T3C0.305
T2C1.016
T1C3.302
%
G90
M71
T1
X112776Y99568
X112776Y150876
X2540Y48260
X2540Y2540
X35560Y48260
X35560Y2540
X41148Y48260
X41148Y2540
X74168Y48260
X74168Y2540
X79756Y48260
X79756Y2540
X112776Y48260
X112776Y2540
X2540Y99568
X2540Y53848
X35560Y99568
X35560Y53848
X41148Y99568
X41148Y53848
X74168Y99568
X74168Y53848
X79756Y99568
X79756Y53848
X112776Y105156
X112776Y53848
X2540Y150876
X2540Y105156
X35560Y150876
X35560Y105156
X41148Y150876
X41148Y105156
X74168Y150876
X74168Y105156
X79756Y150876
X79756Y105156
T2
X114046Y8890
X78486Y108966
X36830Y26670
X36830Y24130
X36830Y21590
X36830Y19050
X36830Y16510
X36830Y13970
X36830Y11430
X36830Y8890
X36830Y6350
X1270Y26670
X1270Y24130
X1270Y21590
X1270Y19050
X1270Y16510
X1270Y13970
X1270Y11430
X1270Y8890
X1270Y6350
X75438Y26670
X75438Y24130
X75438Y21590
X75438Y19050
X75438Y16510
X75438Y13970
X75438Y11430
X75438Y8890
X75438Y6350
X39878Y26670
X39878Y24130
X39878Y21590
X39878Y19050
X39878Y16510
X39878Y13970
X39878Y11430
X39878Y8890
X39878Y6350
X114046Y26670
X114046Y24130
X114046Y21590
X114046Y19050
X114046Y16510
X114046Y13970
X114046Y11430
X114046Y6350
X78486Y26670
X78486Y24130
X78486Y21590
X78486Y19050
X78486Y16510
X78486Y13970
X78486Y11430
X78486Y8890
X78486Y6350
X36830Y77978
X36830Y75438
X36830Y72898
X36830Y70358
X36830Y67818
X36830Y65278
X36830Y62738
X36830Y60198
X36830Y57658
X1270Y77978
X1270Y75438
X1270Y72898
X1270Y70358
X1270Y67818
X1270Y65278
X1270Y62738
X1270Y60198
X1270Y57658
X75438Y77978
X75438Y75438
X75438Y72898
X75438Y70358
X75438Y67818
X75438Y65278
X75438Y62738
X75438Y60198
X75438Y57658
X39878Y77978
X39878Y75438
X39878Y72898
X39878Y70358
X39878Y67818
X39878Y65278
X39878Y62738
X39878Y60198
X39878Y57658
X114046Y77978
X114046Y75438
X114046Y72898
X114046Y70358
X114046Y67818
X114046Y65278
X114046Y62738
X114046Y60198
X114046Y57658
X78486Y77978
X78486Y75438
X78486Y72898
X78486Y70358
X78486Y67818
X78486Y65278
X78486Y62738
X78486Y60198
X78486Y57658
X36830Y129286
X36830Y126746
X36830Y124206
X36830Y121666
X36830Y119126
X36830Y116586
X36830Y114046
X36830Y111506
X36830Y108966
X1270Y129286
X1270Y126746
X1270Y124206
X1270Y121666
X1270Y119126
X1270Y116586
X1270Y114046
X1270Y111506
X1270Y108966
X75438Y129286
X75438Y126746
X75438Y124206
X75438Y121666
X75438Y119126
X75438Y116586
X75438Y114046
X75438Y111506
X75438Y108966
X39878Y129286
X39878Y126746
X39878Y124206
X39878Y121666
X39878Y119126
X39878Y116586
X39878Y114046
X39878Y111506
X39878Y108966
X114046Y129286
X114046Y126746
X114046Y124206
X114046Y121666
X114046Y119126
X114046Y116586
X114046Y114046
X114046Y111506
X114046Y108966
X78486Y129286
X78486Y126746
X78486Y124206
X78486Y121666
X78486Y119126
X78486Y116586
X78486Y114046
X78486Y111506
T3
X102616Y22860
X98806Y22860
X94996Y22860
X91186Y22860
X87376Y22860
X105156Y26670
X101346Y26670
X97536Y26670
X93726Y26670
X89916Y26670
X86106Y26670
X106426Y30480
X102616Y30480
X98806Y30480
X94996Y30480
X91186Y30480
X87376Y30480
X105156Y34290
X101346Y34290
X97536Y34290
X93726Y34290
X89916Y34290
X86106Y34290
X98171Y49911
X98806Y46990
X101346Y44450
X97536Y41910
X105156Y41910
X98806Y44450
X107696Y44450
X105156Y44450
X107696Y46990
X108331Y49911
X93726Y41910
X86106Y41910
X94996Y41910
X87884Y41910
X111506Y29210
X106426Y38100
X102616Y38100
X98806Y38100
X94996Y38100
X91186Y38100
X87376Y38100
X112395Y11176
X82296Y12700
X112776Y17780
X111506Y5207
X82296Y7620
X105410Y1270
X102362Y1270
X29210Y58928
X30480Y55118
X26670Y55118
X22860Y55118
X19050Y55118
X15240Y55118
X11430Y55118
X7620Y55118
X25400Y58928
X21590Y58928
X17780Y58928
X13970Y58928
X10160Y58928
X27940Y62738
X24130Y62738
X20320Y62738
X16510Y62738
X12700Y62738
X8890Y62738
X29210Y66548
X25400Y66548
X21590Y66548
X17780Y66548
X13970Y66548
X10160Y66548
X27940Y70358
X24130Y70358
X20320Y70358
X16510Y70358
X12700Y70358
X8890Y70358
X29210Y74168
X25400Y74168
X21590Y74168
X17780Y74168
X13970Y74168
X10160Y74168
X27940Y77978
X24130Y77978
X20320Y77978
X16510Y77978
X12700Y77978
X8890Y77978
X29210Y81788
X25400Y81788
X21590Y81788
X17780Y81788
X13970Y81788
X10160Y81788
X27940Y85598
X24130Y85598
X20320Y85598
X16510Y85598
X12700Y85598
X8890Y85598
X20955Y101219
X21590Y98298
X24130Y95758
X20320Y93218
X27940Y93218
X21590Y95758
X30480Y95758
X27940Y95758
X30480Y98298
X31115Y101219
X16510Y93218
X8890Y93218
X17780Y93218
X10668Y93218
X34290Y80518
X29210Y89408
X25400Y89408
X21590Y89408
X17780Y89408
X13970Y89408
X10160Y89408
X35179Y62484
X5080Y64008
X35560Y69088
X34290Y56515
X5080Y58928
X28194Y52578
X25146Y52578
X67818Y58928
X69088Y55118
X65278Y55118
X61468Y55118
X57658Y55118
X53848Y55118
X50038Y55118
X46228Y55118
X64008Y58928
X60198Y58928
X56388Y58928
X52578Y58928
X48768Y58928
X66548Y62738
X62738Y62738
X58928Y62738
X55118Y62738
X51308Y62738
X47498Y62738
X67818Y66548
X64008Y66548
X60198Y66548
X56388Y66548
X52578Y66548
X48768Y66548
X66548Y70358
X62738Y70358
X58928Y70358
X55118Y70358
X51308Y70358
X47498Y70358
X67818Y74168
X64008Y74168
X60198Y74168
X56388Y74168
X52578Y74168
X48768Y74168
X66548Y77978
X62738Y77978
X58928Y77978
X55118Y77978
X51308Y77978
X47498Y77978
X67818Y81788
X64008Y81788
X60198Y81788
X56388Y81788
X52578Y81788
X48768Y81788
X66548Y85598
X62738Y85598
X58928Y85598
X55118Y85598
X51308Y85598
X47498Y85598
X59563Y101219
X60198Y98298
X62738Y95758
X58928Y93218
X66548Y93218
X60198Y95758
X69088Y95758
X66548Y95758
X69088Y98298
X69723Y101219
X55118Y93218
X47498Y93218
X56388Y93218
X49276Y93218
X72898Y80518
X67818Y89408
X64008Y89408
X60198Y89408
X56388Y89408
X52578Y89408
X48768Y89408
X73787Y62484
X43688Y64008
X74168Y69088
X72898Y56515
X43688Y58928
X66802Y52578
X63754Y52578
X106426Y58928
X107696Y55118
X103886Y55118
X100076Y55118
X96266Y55118
X92456Y55118
X88646Y55118
X84836Y55118
X102616Y58928
X98806Y58928
X94996Y58928
X91186Y58928
X87376Y58928
X105156Y62738
X101346Y62738
X97536Y62738
X93726Y62738
X89916Y62738
X86106Y62738
X106426Y66548
X102616Y66548
X98806Y66548
X94996Y66548
X91186Y66548
X87376Y66548
X105156Y70358
X101346Y70358
X97536Y70358
X93726Y70358
X89916Y70358
X86106Y70358
X106426Y74168
X102616Y74168
X98806Y74168
X94996Y74168
X91186Y74168
X87376Y74168
X105156Y77978
X101346Y77978
X97536Y77978
X93726Y77978
X89916Y77978
X86106Y77978
X106426Y81788
X102616Y81788
X98806Y81788
X94996Y81788
X91186Y81788
X87376Y81788
X105156Y85598
X101346Y85598
X97536Y85598
X93726Y85598
X89916Y85598
X86106Y85598
X98171Y101219
X98806Y98298
X52578Y22860
X97536Y93218
X105156Y93218
X98806Y95758
X107696Y95758
X105156Y95758
X107696Y98298
X108331Y101219
X93726Y93218
X86106Y93218
X94996Y93218
X87884Y93218
X111506Y80518
X106426Y89408
X102616Y89408
X98806Y89408
X94996Y89408
X91186Y89408
X87376Y89408
X112395Y62484
X82296Y64008
X112776Y69088
X111506Y56515
X82296Y58928
X105410Y52578
X102362Y52578
X29210Y110236
X30480Y106426
X26670Y106426
X22860Y106426
X19050Y106426
X15240Y106426
X11430Y106426
X7620Y106426
X25400Y110236
X21590Y110236
X17780Y110236
X13970Y110236
X10160Y110236
X27940Y114046
X24130Y114046
X20320Y114046
X16510Y114046
X12700Y114046
X8890Y114046
X29210Y117856
X25400Y117856
X21590Y117856
X17780Y117856
X13970Y117856
X10160Y117856
X27940Y121666
X24130Y121666
X20320Y121666
X16510Y121666
X12700Y121666
X8890Y121666
X29210Y125476
X25400Y125476
X21590Y125476
X17780Y125476
X13970Y125476
X10160Y125476
X27940Y129286
X24130Y129286
X20320Y129286
X16510Y129286
X12700Y129286
X8890Y129286
X29210Y133096
X25400Y133096
X21590Y133096
X17780Y133096
X13970Y133096
X10160Y133096
X27940Y136906
X24130Y136906
X20320Y136906
X16510Y136906
X12700Y136906
X8890Y136906
X20955Y152527
X21590Y149606
X24130Y147066
X20320Y144526
X27940Y144526
X21590Y147066
X30480Y147066
X27940Y147066
X30480Y149606
X31115Y152527
X16510Y144526
X8890Y144526
X17780Y144526
X10668Y144526
X34290Y131826
X29210Y140716
X25400Y140716
X21590Y140716
X17780Y140716
X13970Y140716
X10160Y140716
X35179Y113792
X5080Y115316
X35560Y120396
X34290Y107823
X5080Y110236
X28194Y103886
X25146Y103886
X67818Y110236
X69088Y106426
X65278Y106426
X61468Y106426
X57658Y106426
X53848Y106426
X50038Y106426
X46228Y106426
X64008Y110236
X60198Y110236
X56388Y110236
X52578Y110236
X48768Y110236
X66548Y114046
X62738Y114046
X58928Y114046
X55118Y114046
X51308Y114046
X47498Y114046
X67818Y117856
X64008Y117856
X60198Y117856
X56388Y117856
X52578Y117856
X48768Y117856
X66548Y121666
X62738Y121666
X58928Y121666
X55118Y121666
X51308Y121666
X47498Y121666
X67818Y125476
X64008Y125476
X60198Y125476
X56388Y125476
X52578Y125476
X48768Y125476
X66548Y129286
X62738Y129286
X58928Y129286
X55118Y129286
X51308Y129286
X47498Y129286
X67818Y133096
X64008Y133096
X60198Y133096
X56388Y133096
X52578Y133096
X48768Y133096
X66548Y136906
X62738Y136906
X58928Y136906
X55118Y136906
X51308Y136906
X47498Y136906
X59563Y152527
X60198Y149606
X62738Y147066
X58928Y144526
X66548Y144526
X60198Y147066
X69088Y147066
X66548Y147066
X69088Y149606
X69723Y152527
X55118Y144526
X47498Y144526
X56388Y144526
X49276Y144526
X72898Y131826
X67818Y140716
X64008Y140716
X60198Y140716
X56388Y140716
X52578Y140716
X48768Y140716
X73787Y113792
X43688Y115316
X74168Y120396
X72898Y107823
X43688Y110236
X66802Y103886
X63754Y103886
X106426Y110236
X107696Y106426
X103886Y106426
X100076Y106426
X96266Y106426
X92456Y106426
X88646Y106426
X84836Y106426
X102616Y110236
X98806Y110236
X94996Y110236
X91186Y110236
X87376Y110236
X105156Y114046
X101346Y114046
X97536Y114046
X93726Y114046
X89916Y114046
X86106Y114046
X106426Y117856
X102616Y117856
X98806Y117856
X94996Y117856
X91186Y117856
X87376Y117856
X105156Y121666
X101346Y121666
X97536Y121666
X93726Y121666
X89916Y121666
X86106Y121666
X106426Y125476
X102616Y125476
X98806Y125476
X94996Y125476
X91186Y125476
X87376Y125476
X105156Y129286
X101346Y129286
X97536Y129286
X93726Y129286
X89916Y129286
X86106Y129286
X106426Y133096
X29210Y7620
X98806Y133096
X94996Y133096
X91186Y133096
X87376Y133096
X105156Y136906
X101346Y136906
X97536Y136906
X93726Y136906
X89916Y136906
X86106Y136906
X98171Y152527
X98806Y149606
X101346Y147066
X97536Y144526
X105156Y144526
X98806Y147066
X107696Y147066
X105156Y147066
X107696Y149606
X108331Y152527
X93726Y144526
X86106Y144526
X94996Y144526
X87884Y144526
X111506Y131826
X106426Y140716
X102616Y140716
X98806Y140716
X94996Y140716
X91186Y140716
X87376Y140716
X112395Y113792
X82296Y115316
X112776Y120396
X111506Y107823
X82296Y110236
X105410Y103886
X102362Y103886
X30480Y3810
X26670Y3810
X22860Y3810
X19050Y3810
X15240Y3810
X11430Y3810
X7620Y3810
X25400Y7620
X21590Y7620
X17780Y7620
X13970Y7620
X10160Y7620
X27940Y11430
X24130Y11430
X20320Y11430
X16510Y11430
X12700Y11430
X8890Y11430
X29210Y15240
X25400Y15240
X21590Y15240
X17780Y15240
X13970Y15240
X10160Y15240
X27940Y19050
X24130Y19050
X20320Y19050
X16510Y19050
X12700Y19050
X8890Y19050
X29210Y22860
X25400Y22860
X21590Y22860
X17780Y22860
X13970Y22860
X10160Y22860
X27940Y26670
X24130Y26670
X20320Y26670
X16510Y26670
X12700Y26670
X8890Y26670
X29210Y30480
X25400Y30480
X21590Y30480
X17780Y30480
X13970Y30480
X10160Y30480
X27940Y34290
X24130Y34290
X20320Y34290
X16510Y34290
X12700Y34290
X8890Y34290
X20955Y49911
X21590Y46990
X24130Y44450
X20320Y41910
X27940Y41910
X21590Y44450
X30480Y44450
X27940Y44450
X30480Y46990
X31115Y49911
X16510Y41910
X8890Y41910
X17780Y41910
X10668Y41910
X34290Y29210
X29210Y38100
X25400Y38100
X21590Y38100
X17780Y38100
X13970Y38100
X10160Y38100
X35179Y11176
X5080Y12700
X35560Y17780
X34290Y5207
X101346Y95758
X5080Y7620
X28194Y1270
X25146Y1270
X67818Y7620
X69088Y3810
X65278Y3810
X61468Y3810
X57658Y3810
X53848Y3810
X50038Y3810
X46228Y3810
X64008Y7620
X60198Y7620
X56388Y7620
X52578Y7620
X48768Y7620
X66548Y11430
X62738Y11430
X58928Y11430
X55118Y11430
X51308Y11430
X47498Y11430
X67818Y15240
X64008Y15240
X60198Y15240
X56388Y15240
X52578Y15240
X48768Y15240
X66548Y19050
X62738Y19050
X58928Y19050
X55118Y19050
X51308Y19050
X47498Y19050
X67818Y22860
X64008Y22860
X60198Y22860
X56388Y22860
X48768Y22860
X66548Y26670
X62738Y26670
X58928Y26670
X55118Y26670
X51308Y26670
X47498Y26670
X67818Y30480
X64008Y30480
X60198Y30480
X56388Y30480
X52578Y30480
X48768Y30480
X66548Y34290
X62738Y34290
X58928Y34290
X55118Y34290
X51308Y34290
X47498Y34290
X59563Y49911
X60198Y46990
X62738Y44450
X58928Y41910
X66548Y41910
X60198Y44450
X69088Y44450
X66548Y44450
X69088Y46990
X69723Y49911
X55118Y41910
X47498Y41910
X56388Y41910
X49276Y41910
X72898Y29210
X67818Y38100
X64008Y38100
X60198Y38100
X56388Y38100
X52578Y38100
X48768Y38100
X73787Y11176
X43688Y12700
X74168Y17780
X72898Y5207
X43688Y7620
X66802Y1270
X63754Y1270
X106426Y7620
X107696Y3810
X103886Y3810
X100076Y3810
X96266Y3810
X92456Y3810
X88646Y3810
X84836Y3810
X102616Y7620
X98806Y7620
X94996Y7620
X91186Y7620
X87376Y7620
X105156Y11430
X101346Y11430
X97536Y11430
X93726Y11430
X89916Y11430
X86106Y11430
X106426Y15240
X102616Y15240
X98806Y15240
X94996Y15240
X91186Y15240
X87376Y15240
X105156Y19050
X101346Y19050
X97536Y19050
X93726Y19050
X89916Y19050
X86106Y19050
X106426Y22860
X102616Y133096
M30