G04 EAGLE Gerber RS-274X export*
G75*
%MOMM*%
%FSLAX34Y34*%
%LPD*%
%INSoldermask Bottom*%
%IPPOS*%
%AMOC8*
5,1,8,0,0,1.08239X$1,22.5*%
G01*
%ADD10C,0.838200*%
%ADD11C,3.505200*%
%ADD12R,0.863600X1.473200*%
%ADD13R,1.703200X4.203200*%
%ADD14C,2.082800*%
%ADD15C,1.203200*%
%ADD16C,1.270000*%
%ADD17C,1.703200*%

G36*
X1040830Y1036967D02*
X1040830Y1036967D01*
X1040896Y1036969D01*
X1040939Y1036987D01*
X1040986Y1036995D01*
X1041043Y1037029D01*
X1041103Y1037054D01*
X1041138Y1037085D01*
X1041179Y1037110D01*
X1041221Y1037161D01*
X1041269Y1037205D01*
X1041291Y1037247D01*
X1041320Y1037284D01*
X1041341Y1037346D01*
X1041372Y1037405D01*
X1041380Y1037459D01*
X1041392Y1037496D01*
X1041391Y1037536D01*
X1041399Y1037590D01*
X1041399Y1040130D01*
X1041388Y1040195D01*
X1041386Y1040261D01*
X1041368Y1040304D01*
X1041360Y1040351D01*
X1041326Y1040408D01*
X1041301Y1040468D01*
X1041270Y1040503D01*
X1041245Y1040544D01*
X1041194Y1040586D01*
X1041150Y1040634D01*
X1041108Y1040656D01*
X1041071Y1040685D01*
X1041009Y1040706D01*
X1040950Y1040737D01*
X1040896Y1040745D01*
X1040859Y1040757D01*
X1040819Y1040756D01*
X1040765Y1040764D01*
X1036955Y1040764D01*
X1036890Y1040753D01*
X1036824Y1040751D01*
X1036781Y1040733D01*
X1036734Y1040725D01*
X1036677Y1040691D01*
X1036617Y1040666D01*
X1036582Y1040635D01*
X1036541Y1040610D01*
X1036500Y1040559D01*
X1036451Y1040515D01*
X1036429Y1040473D01*
X1036400Y1040436D01*
X1036379Y1040374D01*
X1036348Y1040315D01*
X1036340Y1040261D01*
X1036328Y1040224D01*
X1036328Y1040221D01*
X1036329Y1040184D01*
X1036321Y1040130D01*
X1036321Y1037590D01*
X1036332Y1037525D01*
X1036334Y1037459D01*
X1036352Y1037416D01*
X1036360Y1037369D01*
X1036394Y1037312D01*
X1036419Y1037252D01*
X1036450Y1037217D01*
X1036475Y1037176D01*
X1036526Y1037135D01*
X1036570Y1037086D01*
X1036612Y1037064D01*
X1036649Y1037035D01*
X1036711Y1037014D01*
X1036770Y1036983D01*
X1036824Y1036975D01*
X1036861Y1036963D01*
X1036901Y1036964D01*
X1036955Y1036956D01*
X1040765Y1036956D01*
X1040830Y1036967D01*
G37*
G36*
X654750Y1036967D02*
X654750Y1036967D01*
X654816Y1036969D01*
X654859Y1036987D01*
X654906Y1036995D01*
X654963Y1037029D01*
X655023Y1037054D01*
X655058Y1037085D01*
X655099Y1037110D01*
X655141Y1037161D01*
X655189Y1037205D01*
X655211Y1037247D01*
X655240Y1037284D01*
X655261Y1037346D01*
X655292Y1037405D01*
X655300Y1037459D01*
X655312Y1037496D01*
X655311Y1037536D01*
X655319Y1037590D01*
X655319Y1040130D01*
X655308Y1040195D01*
X655306Y1040261D01*
X655288Y1040304D01*
X655280Y1040351D01*
X655246Y1040408D01*
X655221Y1040468D01*
X655190Y1040503D01*
X655165Y1040544D01*
X655114Y1040586D01*
X655070Y1040634D01*
X655028Y1040656D01*
X654991Y1040685D01*
X654929Y1040706D01*
X654870Y1040737D01*
X654816Y1040745D01*
X654779Y1040757D01*
X654739Y1040756D01*
X654685Y1040764D01*
X650875Y1040764D01*
X650810Y1040753D01*
X650744Y1040751D01*
X650701Y1040733D01*
X650654Y1040725D01*
X650597Y1040691D01*
X650537Y1040666D01*
X650502Y1040635D01*
X650461Y1040610D01*
X650420Y1040559D01*
X650371Y1040515D01*
X650349Y1040473D01*
X650320Y1040436D01*
X650299Y1040374D01*
X650268Y1040315D01*
X650260Y1040261D01*
X650248Y1040224D01*
X650248Y1040221D01*
X650249Y1040184D01*
X650241Y1040130D01*
X650241Y1037590D01*
X650252Y1037525D01*
X650254Y1037459D01*
X650272Y1037416D01*
X650280Y1037369D01*
X650314Y1037312D01*
X650339Y1037252D01*
X650370Y1037217D01*
X650395Y1037176D01*
X650446Y1037135D01*
X650490Y1037086D01*
X650532Y1037064D01*
X650569Y1037035D01*
X650631Y1037014D01*
X650690Y1036983D01*
X650744Y1036975D01*
X650781Y1036963D01*
X650821Y1036964D01*
X650875Y1036956D01*
X654685Y1036956D01*
X654750Y1036967D01*
G37*
G36*
X268670Y1036967D02*
X268670Y1036967D01*
X268736Y1036969D01*
X268779Y1036987D01*
X268826Y1036995D01*
X268883Y1037029D01*
X268943Y1037054D01*
X268978Y1037085D01*
X269019Y1037110D01*
X269061Y1037161D01*
X269109Y1037205D01*
X269131Y1037247D01*
X269160Y1037284D01*
X269181Y1037346D01*
X269212Y1037405D01*
X269220Y1037459D01*
X269232Y1037496D01*
X269231Y1037536D01*
X269239Y1037590D01*
X269239Y1040130D01*
X269228Y1040195D01*
X269226Y1040261D01*
X269208Y1040304D01*
X269200Y1040351D01*
X269166Y1040408D01*
X269141Y1040468D01*
X269110Y1040503D01*
X269085Y1040544D01*
X269034Y1040586D01*
X268990Y1040634D01*
X268948Y1040656D01*
X268911Y1040685D01*
X268849Y1040706D01*
X268790Y1040737D01*
X268736Y1040745D01*
X268699Y1040757D01*
X268659Y1040756D01*
X268605Y1040764D01*
X264795Y1040764D01*
X264730Y1040753D01*
X264664Y1040751D01*
X264621Y1040733D01*
X264574Y1040725D01*
X264517Y1040691D01*
X264457Y1040666D01*
X264422Y1040635D01*
X264381Y1040610D01*
X264340Y1040559D01*
X264291Y1040515D01*
X264269Y1040473D01*
X264240Y1040436D01*
X264219Y1040374D01*
X264188Y1040315D01*
X264180Y1040261D01*
X264168Y1040224D01*
X264168Y1040221D01*
X264169Y1040184D01*
X264161Y1040130D01*
X264161Y1037590D01*
X264172Y1037525D01*
X264174Y1037459D01*
X264192Y1037416D01*
X264200Y1037369D01*
X264234Y1037312D01*
X264259Y1037252D01*
X264290Y1037217D01*
X264315Y1037176D01*
X264366Y1037135D01*
X264410Y1037086D01*
X264452Y1037064D01*
X264489Y1037035D01*
X264551Y1037014D01*
X264610Y1036983D01*
X264664Y1036975D01*
X264701Y1036963D01*
X264741Y1036964D01*
X264795Y1036956D01*
X268605Y1036956D01*
X268670Y1036967D01*
G37*
G36*
X1040830Y523887D02*
X1040830Y523887D01*
X1040896Y523889D01*
X1040939Y523907D01*
X1040986Y523915D01*
X1041043Y523949D01*
X1041103Y523974D01*
X1041138Y524005D01*
X1041179Y524030D01*
X1041221Y524081D01*
X1041269Y524125D01*
X1041291Y524167D01*
X1041320Y524204D01*
X1041341Y524266D01*
X1041372Y524325D01*
X1041380Y524379D01*
X1041392Y524416D01*
X1041391Y524456D01*
X1041399Y524510D01*
X1041399Y527050D01*
X1041388Y527115D01*
X1041386Y527181D01*
X1041368Y527224D01*
X1041360Y527271D01*
X1041326Y527328D01*
X1041301Y527388D01*
X1041270Y527423D01*
X1041245Y527464D01*
X1041194Y527506D01*
X1041150Y527554D01*
X1041108Y527576D01*
X1041071Y527605D01*
X1041009Y527626D01*
X1040950Y527657D01*
X1040896Y527665D01*
X1040859Y527677D01*
X1040819Y527676D01*
X1040765Y527684D01*
X1036955Y527684D01*
X1036890Y527673D01*
X1036824Y527671D01*
X1036781Y527653D01*
X1036734Y527645D01*
X1036677Y527611D01*
X1036617Y527586D01*
X1036582Y527555D01*
X1036541Y527530D01*
X1036500Y527479D01*
X1036451Y527435D01*
X1036429Y527393D01*
X1036400Y527356D01*
X1036379Y527294D01*
X1036348Y527235D01*
X1036340Y527181D01*
X1036328Y527144D01*
X1036328Y527141D01*
X1036329Y527104D01*
X1036321Y527050D01*
X1036321Y524510D01*
X1036332Y524445D01*
X1036334Y524379D01*
X1036352Y524336D01*
X1036360Y524289D01*
X1036394Y524232D01*
X1036419Y524172D01*
X1036450Y524137D01*
X1036475Y524096D01*
X1036526Y524055D01*
X1036570Y524006D01*
X1036612Y523984D01*
X1036649Y523955D01*
X1036711Y523934D01*
X1036770Y523903D01*
X1036824Y523895D01*
X1036861Y523883D01*
X1036901Y523884D01*
X1036955Y523876D01*
X1040765Y523876D01*
X1040830Y523887D01*
G37*
G36*
X654750Y523887D02*
X654750Y523887D01*
X654816Y523889D01*
X654859Y523907D01*
X654906Y523915D01*
X654963Y523949D01*
X655023Y523974D01*
X655058Y524005D01*
X655099Y524030D01*
X655141Y524081D01*
X655189Y524125D01*
X655211Y524167D01*
X655240Y524204D01*
X655261Y524266D01*
X655292Y524325D01*
X655300Y524379D01*
X655312Y524416D01*
X655311Y524456D01*
X655319Y524510D01*
X655319Y527050D01*
X655308Y527115D01*
X655306Y527181D01*
X655288Y527224D01*
X655280Y527271D01*
X655246Y527328D01*
X655221Y527388D01*
X655190Y527423D01*
X655165Y527464D01*
X655114Y527506D01*
X655070Y527554D01*
X655028Y527576D01*
X654991Y527605D01*
X654929Y527626D01*
X654870Y527657D01*
X654816Y527665D01*
X654779Y527677D01*
X654739Y527676D01*
X654685Y527684D01*
X650875Y527684D01*
X650810Y527673D01*
X650744Y527671D01*
X650701Y527653D01*
X650654Y527645D01*
X650597Y527611D01*
X650537Y527586D01*
X650502Y527555D01*
X650461Y527530D01*
X650420Y527479D01*
X650371Y527435D01*
X650349Y527393D01*
X650320Y527356D01*
X650299Y527294D01*
X650268Y527235D01*
X650260Y527181D01*
X650248Y527144D01*
X650248Y527141D01*
X650249Y527104D01*
X650241Y527050D01*
X650241Y524510D01*
X650252Y524445D01*
X650254Y524379D01*
X650272Y524336D01*
X650280Y524289D01*
X650314Y524232D01*
X650339Y524172D01*
X650370Y524137D01*
X650395Y524096D01*
X650446Y524055D01*
X650490Y524006D01*
X650532Y523984D01*
X650569Y523955D01*
X650631Y523934D01*
X650690Y523903D01*
X650744Y523895D01*
X650781Y523883D01*
X650821Y523884D01*
X650875Y523876D01*
X654685Y523876D01*
X654750Y523887D01*
G37*
G36*
X268670Y523887D02*
X268670Y523887D01*
X268736Y523889D01*
X268779Y523907D01*
X268826Y523915D01*
X268883Y523949D01*
X268943Y523974D01*
X268978Y524005D01*
X269019Y524030D01*
X269061Y524081D01*
X269109Y524125D01*
X269131Y524167D01*
X269160Y524204D01*
X269181Y524266D01*
X269212Y524325D01*
X269220Y524379D01*
X269232Y524416D01*
X269231Y524456D01*
X269239Y524510D01*
X269239Y527050D01*
X269228Y527115D01*
X269226Y527181D01*
X269208Y527224D01*
X269200Y527271D01*
X269166Y527328D01*
X269141Y527388D01*
X269110Y527423D01*
X269085Y527464D01*
X269034Y527506D01*
X268990Y527554D01*
X268948Y527576D01*
X268911Y527605D01*
X268849Y527626D01*
X268790Y527657D01*
X268736Y527665D01*
X268699Y527677D01*
X268659Y527676D01*
X268605Y527684D01*
X264795Y527684D01*
X264730Y527673D01*
X264664Y527671D01*
X264621Y527653D01*
X264574Y527645D01*
X264517Y527611D01*
X264457Y527586D01*
X264422Y527555D01*
X264381Y527530D01*
X264340Y527479D01*
X264291Y527435D01*
X264269Y527393D01*
X264240Y527356D01*
X264219Y527294D01*
X264188Y527235D01*
X264180Y527181D01*
X264168Y527144D01*
X264168Y527141D01*
X264169Y527104D01*
X264161Y527050D01*
X264161Y524510D01*
X264172Y524445D01*
X264174Y524379D01*
X264192Y524336D01*
X264200Y524289D01*
X264234Y524232D01*
X264259Y524172D01*
X264290Y524137D01*
X264315Y524096D01*
X264366Y524055D01*
X264410Y524006D01*
X264452Y523984D01*
X264489Y523955D01*
X264551Y523934D01*
X264610Y523903D01*
X264664Y523895D01*
X264701Y523883D01*
X264741Y523884D01*
X264795Y523876D01*
X268605Y523876D01*
X268670Y523887D01*
G37*
G36*
X1040830Y10807D02*
X1040830Y10807D01*
X1040896Y10809D01*
X1040939Y10827D01*
X1040986Y10835D01*
X1041043Y10869D01*
X1041103Y10894D01*
X1041138Y10925D01*
X1041179Y10950D01*
X1041221Y11001D01*
X1041269Y11045D01*
X1041291Y11087D01*
X1041320Y11124D01*
X1041341Y11186D01*
X1041372Y11245D01*
X1041380Y11299D01*
X1041392Y11336D01*
X1041391Y11376D01*
X1041399Y11430D01*
X1041399Y13970D01*
X1041388Y14035D01*
X1041386Y14101D01*
X1041368Y14144D01*
X1041360Y14191D01*
X1041326Y14248D01*
X1041301Y14308D01*
X1041270Y14343D01*
X1041245Y14384D01*
X1041194Y14426D01*
X1041150Y14474D01*
X1041108Y14496D01*
X1041071Y14525D01*
X1041009Y14546D01*
X1040950Y14577D01*
X1040896Y14585D01*
X1040859Y14597D01*
X1040819Y14596D01*
X1040765Y14604D01*
X1036955Y14604D01*
X1036890Y14593D01*
X1036824Y14591D01*
X1036781Y14573D01*
X1036734Y14565D01*
X1036677Y14531D01*
X1036617Y14506D01*
X1036582Y14475D01*
X1036541Y14450D01*
X1036500Y14399D01*
X1036451Y14355D01*
X1036429Y14313D01*
X1036400Y14276D01*
X1036379Y14214D01*
X1036348Y14155D01*
X1036340Y14101D01*
X1036328Y14064D01*
X1036328Y14061D01*
X1036329Y14024D01*
X1036321Y13970D01*
X1036321Y11430D01*
X1036332Y11365D01*
X1036334Y11299D01*
X1036352Y11256D01*
X1036360Y11209D01*
X1036394Y11152D01*
X1036419Y11092D01*
X1036450Y11057D01*
X1036475Y11016D01*
X1036526Y10975D01*
X1036570Y10926D01*
X1036612Y10904D01*
X1036649Y10875D01*
X1036711Y10854D01*
X1036770Y10823D01*
X1036824Y10815D01*
X1036861Y10803D01*
X1036901Y10804D01*
X1036955Y10796D01*
X1040765Y10796D01*
X1040830Y10807D01*
G37*
G36*
X654750Y10807D02*
X654750Y10807D01*
X654816Y10809D01*
X654859Y10827D01*
X654906Y10835D01*
X654963Y10869D01*
X655023Y10894D01*
X655058Y10925D01*
X655099Y10950D01*
X655141Y11001D01*
X655189Y11045D01*
X655211Y11087D01*
X655240Y11124D01*
X655261Y11186D01*
X655292Y11245D01*
X655300Y11299D01*
X655312Y11336D01*
X655311Y11376D01*
X655319Y11430D01*
X655319Y13970D01*
X655308Y14035D01*
X655306Y14101D01*
X655288Y14144D01*
X655280Y14191D01*
X655246Y14248D01*
X655221Y14308D01*
X655190Y14343D01*
X655165Y14384D01*
X655114Y14426D01*
X655070Y14474D01*
X655028Y14496D01*
X654991Y14525D01*
X654929Y14546D01*
X654870Y14577D01*
X654816Y14585D01*
X654779Y14597D01*
X654739Y14596D01*
X654685Y14604D01*
X650875Y14604D01*
X650810Y14593D01*
X650744Y14591D01*
X650701Y14573D01*
X650654Y14565D01*
X650597Y14531D01*
X650537Y14506D01*
X650502Y14475D01*
X650461Y14450D01*
X650420Y14399D01*
X650371Y14355D01*
X650349Y14313D01*
X650320Y14276D01*
X650299Y14214D01*
X650268Y14155D01*
X650260Y14101D01*
X650248Y14064D01*
X650248Y14061D01*
X650249Y14024D01*
X650241Y13970D01*
X650241Y11430D01*
X650252Y11365D01*
X650254Y11299D01*
X650272Y11256D01*
X650280Y11209D01*
X650314Y11152D01*
X650339Y11092D01*
X650370Y11057D01*
X650395Y11016D01*
X650446Y10975D01*
X650490Y10926D01*
X650532Y10904D01*
X650569Y10875D01*
X650631Y10854D01*
X650690Y10823D01*
X650744Y10815D01*
X650781Y10803D01*
X650821Y10804D01*
X650875Y10796D01*
X654685Y10796D01*
X654750Y10807D01*
G37*
G36*
X268670Y10807D02*
X268670Y10807D01*
X268736Y10809D01*
X268779Y10827D01*
X268826Y10835D01*
X268883Y10869D01*
X268943Y10894D01*
X268978Y10925D01*
X269019Y10950D01*
X269061Y11001D01*
X269109Y11045D01*
X269131Y11087D01*
X269160Y11124D01*
X269181Y11186D01*
X269212Y11245D01*
X269220Y11299D01*
X269232Y11336D01*
X269231Y11376D01*
X269239Y11430D01*
X269239Y13970D01*
X269228Y14035D01*
X269226Y14101D01*
X269208Y14144D01*
X269200Y14191D01*
X269166Y14248D01*
X269141Y14308D01*
X269110Y14343D01*
X269085Y14384D01*
X269034Y14426D01*
X268990Y14474D01*
X268948Y14496D01*
X268911Y14525D01*
X268849Y14546D01*
X268790Y14577D01*
X268736Y14585D01*
X268699Y14597D01*
X268659Y14596D01*
X268605Y14604D01*
X264795Y14604D01*
X264730Y14593D01*
X264664Y14591D01*
X264621Y14573D01*
X264574Y14565D01*
X264517Y14531D01*
X264457Y14506D01*
X264422Y14475D01*
X264381Y14450D01*
X264340Y14399D01*
X264291Y14355D01*
X264269Y14313D01*
X264240Y14276D01*
X264219Y14214D01*
X264188Y14155D01*
X264180Y14101D01*
X264168Y14064D01*
X264168Y14061D01*
X264169Y14024D01*
X264161Y13970D01*
X264161Y11430D01*
X264172Y11365D01*
X264174Y11299D01*
X264192Y11256D01*
X264200Y11209D01*
X264234Y11152D01*
X264259Y11092D01*
X264290Y11057D01*
X264315Y11016D01*
X264366Y10975D01*
X264410Y10926D01*
X264452Y10904D01*
X264489Y10875D01*
X264551Y10854D01*
X264610Y10823D01*
X264664Y10815D01*
X264701Y10803D01*
X264741Y10804D01*
X264795Y10796D01*
X268605Y10796D01*
X268670Y10807D01*
G37*
D10*
X373380Y7620D03*
X6350Y500380D03*
D11*
X25400Y482600D03*
X25400Y25400D03*
X355600Y482600D03*
X355600Y25400D03*
D12*
X261493Y12700D03*
X271907Y12700D03*
D13*
X234950Y472440D03*
X285750Y472440D03*
D14*
X368300Y266700D03*
X368300Y241300D03*
X368300Y215900D03*
X368300Y190500D03*
X368300Y165100D03*
X368300Y139700D03*
X368300Y114300D03*
X368300Y88900D03*
X368300Y63500D03*
X12700Y266700D03*
X12700Y241300D03*
X12700Y215900D03*
X12700Y190500D03*
X12700Y165100D03*
X12700Y139700D03*
X12700Y114300D03*
X12700Y88900D03*
X12700Y63500D03*
D10*
X759460Y7620D03*
X392430Y500380D03*
D11*
X411480Y482600D03*
X411480Y25400D03*
X741680Y482600D03*
X741680Y25400D03*
D12*
X647573Y12700D03*
X657987Y12700D03*
D13*
X621030Y472440D03*
X671830Y472440D03*
D14*
X754380Y266700D03*
X754380Y241300D03*
X754380Y215900D03*
X754380Y190500D03*
X754380Y165100D03*
X754380Y139700D03*
X754380Y114300D03*
X754380Y88900D03*
X754380Y63500D03*
X398780Y266700D03*
X398780Y241300D03*
X398780Y215900D03*
X398780Y190500D03*
X398780Y165100D03*
X398780Y139700D03*
X398780Y114300D03*
X398780Y88900D03*
X398780Y63500D03*
D10*
X1145540Y7620D03*
X778510Y500380D03*
D11*
X797560Y482600D03*
X797560Y25400D03*
X1127760Y482600D03*
X1127760Y25400D03*
D12*
X1033653Y12700D03*
X1044067Y12700D03*
D13*
X1007110Y472440D03*
X1057910Y472440D03*
D14*
X1140460Y266700D03*
X1140460Y241300D03*
X1140460Y215900D03*
X1140460Y190500D03*
X1140460Y165100D03*
X1140460Y139700D03*
X1140460Y114300D03*
X1140460Y88900D03*
X1140460Y63500D03*
X784860Y266700D03*
X784860Y241300D03*
X784860Y215900D03*
X784860Y190500D03*
X784860Y165100D03*
X784860Y139700D03*
X784860Y114300D03*
X784860Y88900D03*
X784860Y63500D03*
D10*
X373380Y520700D03*
X6350Y1013460D03*
D11*
X25400Y995680D03*
X25400Y538480D03*
X355600Y995680D03*
X355600Y538480D03*
D12*
X261493Y525780D03*
X271907Y525780D03*
D13*
X234950Y985520D03*
X285750Y985520D03*
D14*
X368300Y779780D03*
X368300Y754380D03*
X368300Y728980D03*
X368300Y703580D03*
X368300Y678180D03*
X368300Y652780D03*
X368300Y627380D03*
X368300Y601980D03*
X368300Y576580D03*
X12700Y779780D03*
X12700Y754380D03*
X12700Y728980D03*
X12700Y703580D03*
X12700Y678180D03*
X12700Y652780D03*
X12700Y627380D03*
X12700Y601980D03*
X12700Y576580D03*
D10*
X759460Y520700D03*
X392430Y1013460D03*
D11*
X411480Y995680D03*
X411480Y538480D03*
X741680Y995680D03*
X741680Y538480D03*
D12*
X647573Y525780D03*
X657987Y525780D03*
D13*
X621030Y985520D03*
X671830Y985520D03*
D14*
X754380Y779780D03*
X754380Y754380D03*
X754380Y728980D03*
X754380Y703580D03*
X754380Y678180D03*
X754380Y652780D03*
X754380Y627380D03*
X754380Y601980D03*
X754380Y576580D03*
X398780Y779780D03*
X398780Y754380D03*
X398780Y728980D03*
X398780Y703580D03*
X398780Y678180D03*
X398780Y652780D03*
X398780Y627380D03*
X398780Y601980D03*
X398780Y576580D03*
D10*
X1145540Y520700D03*
X778510Y1013460D03*
D11*
X797560Y995680D03*
X797560Y538480D03*
X1127760Y995680D03*
X1127760Y538480D03*
D12*
X1033653Y525780D03*
X1044067Y525780D03*
D13*
X1007110Y985520D03*
X1057910Y985520D03*
D14*
X1140460Y779780D03*
X1140460Y754380D03*
X1140460Y728980D03*
X1140460Y703580D03*
X1140460Y678180D03*
X1140460Y652780D03*
X1140460Y627380D03*
X1140460Y601980D03*
X1140460Y576580D03*
X784860Y779780D03*
X784860Y754380D03*
X784860Y728980D03*
X784860Y703580D03*
X784860Y678180D03*
X784860Y652780D03*
X784860Y627380D03*
X784860Y601980D03*
X784860Y576580D03*
D10*
X373380Y1033780D03*
X6350Y1526540D03*
D11*
X25400Y1508760D03*
X25400Y1051560D03*
X355600Y1508760D03*
X355600Y1051560D03*
D12*
X261493Y1038860D03*
X271907Y1038860D03*
D13*
X234950Y1498600D03*
X285750Y1498600D03*
D14*
X368300Y1292860D03*
X368300Y1267460D03*
X368300Y1242060D03*
X368300Y1216660D03*
X368300Y1191260D03*
X368300Y1165860D03*
X368300Y1140460D03*
X368300Y1115060D03*
X368300Y1089660D03*
X12700Y1292860D03*
X12700Y1267460D03*
X12700Y1242060D03*
X12700Y1216660D03*
X12700Y1191260D03*
X12700Y1165860D03*
X12700Y1140460D03*
X12700Y1115060D03*
X12700Y1089660D03*
D10*
X759460Y1033780D03*
X392430Y1526540D03*
D11*
X411480Y1508760D03*
X411480Y1051560D03*
X741680Y1508760D03*
X741680Y1051560D03*
D12*
X647573Y1038860D03*
X657987Y1038860D03*
D13*
X621030Y1498600D03*
X671830Y1498600D03*
D14*
X754380Y1292860D03*
X754380Y1267460D03*
X754380Y1242060D03*
X754380Y1216660D03*
X754380Y1191260D03*
X754380Y1165860D03*
X754380Y1140460D03*
X754380Y1115060D03*
X754380Y1089660D03*
X398780Y1292860D03*
X398780Y1267460D03*
X398780Y1242060D03*
X398780Y1216660D03*
X398780Y1191260D03*
X398780Y1165860D03*
X398780Y1140460D03*
X398780Y1115060D03*
X398780Y1089660D03*
D10*
X1145540Y1033780D03*
X778510Y1526540D03*
D11*
X797560Y1508760D03*
X797560Y1051560D03*
X1127760Y1508760D03*
X1127760Y1051560D03*
D12*
X1033653Y1038860D03*
X1044067Y1038860D03*
D13*
X1007110Y1498600D03*
X1057910Y1498600D03*
D14*
X1140460Y1292860D03*
X1140460Y1267460D03*
X1140460Y1242060D03*
X1140460Y1216660D03*
X1140460Y1191260D03*
X1140460Y1165860D03*
X1140460Y1140460D03*
X1140460Y1115060D03*
X1140460Y1089660D03*
X784860Y1292860D03*
X784860Y1267460D03*
X784860Y1242060D03*
X784860Y1216660D03*
X784860Y1191260D03*
X784860Y1165860D03*
X784860Y1140460D03*
X784860Y1115060D03*
X784860Y1089660D03*
D15*
X-26238Y1507490D03*
X1179398Y1507490D03*
D16*
X-35293Y63500D02*
X-35290Y63722D01*
X-35282Y63944D01*
X-35268Y64166D01*
X-35249Y64388D01*
X-35225Y64608D01*
X-35195Y64829D01*
X-35160Y65048D01*
X-35119Y65267D01*
X-35073Y65484D01*
X-35022Y65700D01*
X-34965Y65915D01*
X-34903Y66129D01*
X-34836Y66340D01*
X-34764Y66551D01*
X-34686Y66759D01*
X-34604Y66965D01*
X-34516Y67169D01*
X-34424Y67372D01*
X-34326Y67571D01*
X-34224Y67768D01*
X-34117Y67963D01*
X-34005Y68155D01*
X-33888Y68344D01*
X-33767Y68531D01*
X-33641Y68714D01*
X-33511Y68894D01*
X-33376Y69071D01*
X-33238Y69244D01*
X-33095Y69414D01*
X-32947Y69581D01*
X-32796Y69744D01*
X-32641Y69903D01*
X-32482Y70058D01*
X-32319Y70209D01*
X-32152Y70357D01*
X-31982Y70500D01*
X-31809Y70638D01*
X-31632Y70773D01*
X-31452Y70903D01*
X-31269Y71029D01*
X-31082Y71150D01*
X-30893Y71267D01*
X-30701Y71379D01*
X-30506Y71486D01*
X-30309Y71588D01*
X-30110Y71686D01*
X-29907Y71778D01*
X-29703Y71866D01*
X-29497Y71948D01*
X-29289Y72026D01*
X-29078Y72098D01*
X-28867Y72165D01*
X-28653Y72227D01*
X-28438Y72284D01*
X-28222Y72335D01*
X-28005Y72381D01*
X-27786Y72422D01*
X-27567Y72457D01*
X-27346Y72487D01*
X-27126Y72511D01*
X-26904Y72530D01*
X-26682Y72544D01*
X-26460Y72552D01*
X-26238Y72555D01*
X-26016Y72552D01*
X-25794Y72544D01*
X-25572Y72530D01*
X-25350Y72511D01*
X-25130Y72487D01*
X-24909Y72457D01*
X-24690Y72422D01*
X-24471Y72381D01*
X-24254Y72335D01*
X-24038Y72284D01*
X-23823Y72227D01*
X-23609Y72165D01*
X-23398Y72098D01*
X-23187Y72026D01*
X-22979Y71948D01*
X-22773Y71866D01*
X-22569Y71778D01*
X-22366Y71686D01*
X-22167Y71588D01*
X-21970Y71486D01*
X-21775Y71379D01*
X-21583Y71267D01*
X-21394Y71150D01*
X-21207Y71029D01*
X-21024Y70903D01*
X-20844Y70773D01*
X-20667Y70638D01*
X-20494Y70500D01*
X-20324Y70357D01*
X-20157Y70209D01*
X-19994Y70058D01*
X-19835Y69903D01*
X-19680Y69744D01*
X-19529Y69581D01*
X-19381Y69414D01*
X-19238Y69244D01*
X-19100Y69071D01*
X-18965Y68894D01*
X-18835Y68714D01*
X-18709Y68531D01*
X-18588Y68344D01*
X-18471Y68155D01*
X-18359Y67963D01*
X-18252Y67768D01*
X-18150Y67571D01*
X-18052Y67372D01*
X-17960Y67169D01*
X-17872Y66965D01*
X-17790Y66759D01*
X-17712Y66551D01*
X-17640Y66340D01*
X-17573Y66129D01*
X-17511Y65915D01*
X-17454Y65700D01*
X-17403Y65484D01*
X-17357Y65267D01*
X-17316Y65048D01*
X-17281Y64829D01*
X-17251Y64608D01*
X-17227Y64388D01*
X-17208Y64166D01*
X-17194Y63944D01*
X-17186Y63722D01*
X-17183Y63500D01*
X-17186Y63278D01*
X-17194Y63056D01*
X-17208Y62834D01*
X-17227Y62612D01*
X-17251Y62392D01*
X-17281Y62171D01*
X-17316Y61952D01*
X-17357Y61733D01*
X-17403Y61516D01*
X-17454Y61300D01*
X-17511Y61085D01*
X-17573Y60871D01*
X-17640Y60660D01*
X-17712Y60449D01*
X-17790Y60241D01*
X-17872Y60035D01*
X-17960Y59831D01*
X-18052Y59628D01*
X-18150Y59429D01*
X-18252Y59232D01*
X-18359Y59037D01*
X-18471Y58845D01*
X-18588Y58656D01*
X-18709Y58469D01*
X-18835Y58286D01*
X-18965Y58106D01*
X-19100Y57929D01*
X-19238Y57756D01*
X-19381Y57586D01*
X-19529Y57419D01*
X-19680Y57256D01*
X-19835Y57097D01*
X-19994Y56942D01*
X-20157Y56791D01*
X-20324Y56643D01*
X-20494Y56500D01*
X-20667Y56362D01*
X-20844Y56227D01*
X-21024Y56097D01*
X-21207Y55971D01*
X-21394Y55850D01*
X-21583Y55733D01*
X-21775Y55621D01*
X-21970Y55514D01*
X-22167Y55412D01*
X-22366Y55314D01*
X-22569Y55222D01*
X-22773Y55134D01*
X-22979Y55052D01*
X-23187Y54974D01*
X-23398Y54902D01*
X-23609Y54835D01*
X-23823Y54773D01*
X-24038Y54716D01*
X-24254Y54665D01*
X-24471Y54619D01*
X-24690Y54578D01*
X-24909Y54543D01*
X-25130Y54513D01*
X-25350Y54489D01*
X-25572Y54470D01*
X-25794Y54456D01*
X-26016Y54448D01*
X-26238Y54445D01*
X-26460Y54448D01*
X-26682Y54456D01*
X-26904Y54470D01*
X-27126Y54489D01*
X-27346Y54513D01*
X-27567Y54543D01*
X-27786Y54578D01*
X-28005Y54619D01*
X-28222Y54665D01*
X-28438Y54716D01*
X-28653Y54773D01*
X-28867Y54835D01*
X-29078Y54902D01*
X-29289Y54974D01*
X-29497Y55052D01*
X-29703Y55134D01*
X-29907Y55222D01*
X-30110Y55314D01*
X-30309Y55412D01*
X-30506Y55514D01*
X-30701Y55621D01*
X-30893Y55733D01*
X-31082Y55850D01*
X-31269Y55971D01*
X-31452Y56097D01*
X-31632Y56227D01*
X-31809Y56362D01*
X-31982Y56500D01*
X-32152Y56643D01*
X-32319Y56791D01*
X-32482Y56942D01*
X-32641Y57097D01*
X-32796Y57256D01*
X-32947Y57419D01*
X-33095Y57586D01*
X-33238Y57756D01*
X-33376Y57929D01*
X-33511Y58106D01*
X-33641Y58286D01*
X-33767Y58469D01*
X-33888Y58656D01*
X-34005Y58845D01*
X-34117Y59037D01*
X-34224Y59232D01*
X-34326Y59429D01*
X-34424Y59628D01*
X-34516Y59831D01*
X-34604Y60035D01*
X-34686Y60241D01*
X-34764Y60449D01*
X-34836Y60660D01*
X-34903Y60871D01*
X-34965Y61085D01*
X-35022Y61300D01*
X-35073Y61516D01*
X-35119Y61733D01*
X-35160Y61952D01*
X-35195Y62171D01*
X-35225Y62392D01*
X-35249Y62612D01*
X-35268Y62834D01*
X-35282Y63056D01*
X-35290Y63278D01*
X-35293Y63500D01*
D17*
X-26238Y63500D03*
M02*
