M48
;GenerationSoftware,Autodesk,EAGLE,9.6.2*%
;CreationDate,2023-06-01T21:18:06Z*%
FMAT,2
ICI,OFF
METRIC,TZ,000.000
T3C0.305
T2C1.016
T1C3.302
%
G90
M71
T1
X112776Y94488
X112776Y143256
X2540Y45720
X2540Y2540
X35560Y45720
X35560Y2540
X41148Y45720
X41148Y2540
X74168Y45720
X74168Y2540
X79756Y45720
X79756Y2540
X112776Y45720
X112776Y2540
X2540Y94488
X2540Y51308
X35560Y94488
X35560Y51308
X41148Y94488
X41148Y51308
X74168Y94488
X74168Y51308
X79756Y94488
X79756Y51308
X112776Y100076
X112776Y51308
X2540Y143256
X2540Y100076
X35560Y143256
X35560Y100076
X41148Y143256
X41148Y100076
X74168Y143256
X74168Y100076
X79756Y143256
X79756Y100076
T2
X114046Y16510
X78486Y103886
X36830Y26670
X36830Y24130
X36830Y21590
X36830Y19050
X36830Y16510
X36830Y13970
X36830Y11430
X36830Y8890
X36830Y6350
X1270Y26670
X1270Y24130
X1270Y21590
X1270Y19050
X1270Y16510
X1270Y13970
X1270Y11430
X1270Y8890
X1270Y6350
X75438Y26670
X75438Y24130
X75438Y21590
X75438Y19050
X75438Y16510
X75438Y13970
X75438Y11430
X75438Y8890
X75438Y6350
X39878Y26670
X39878Y24130
X39878Y21590
X39878Y19050
X39878Y16510
X39878Y13970
X39878Y11430
X39878Y8890
X39878Y6350
X114046Y26670
X114046Y24130
X114046Y21590
X114046Y19050
X114046Y13970
X114046Y11430
X114046Y8890
X114046Y6350
X78486Y26670
X78486Y24130
X78486Y21590
X78486Y19050
X78486Y16510
X78486Y13970
X78486Y11430
X78486Y8890
X78486Y6350
X36830Y75438
X36830Y72898
X36830Y70358
X36830Y67818
X36830Y65278
X36830Y62738
X36830Y60198
X36830Y57658
X36830Y55118
X1270Y75438
X1270Y72898
X1270Y70358
X1270Y67818
X1270Y65278
X1270Y62738
X1270Y60198
X1270Y57658
X1270Y55118
X75438Y75438
X75438Y72898
X75438Y70358
X75438Y67818
X75438Y65278
X75438Y62738
X75438Y60198
X75438Y57658
X75438Y55118
X39878Y75438
X39878Y72898
X39878Y70358
X39878Y67818
X39878Y65278
X39878Y62738
X39878Y60198
X39878Y57658
X39878Y55118
X114046Y75438
X114046Y72898
X114046Y70358
X114046Y67818
X114046Y65278
X114046Y62738
X114046Y60198
X114046Y57658
X114046Y55118
X78486Y75438
X78486Y72898
X78486Y70358
X78486Y67818
X78486Y65278
X78486Y62738
X78486Y60198
X78486Y57658
X78486Y55118
X36830Y124206
X36830Y121666
X36830Y119126
X36830Y116586
X36830Y114046
X36830Y111506
X36830Y108966
X36830Y106426
X36830Y103886
X1270Y124206
X1270Y121666
X1270Y119126
X1270Y116586
X1270Y114046
X1270Y111506
X1270Y108966
X1270Y106426
X1270Y103886
X75438Y124206
X75438Y121666
X75438Y119126
X75438Y116586
X75438Y114046
X75438Y111506
X75438Y108966
X75438Y106426
X75438Y103886
X39878Y124206
X39878Y121666
X39878Y119126
X39878Y116586
X39878Y114046
X39878Y111506
X39878Y108966
X39878Y106426
X39878Y103886
X114046Y124206
X114046Y121666
X114046Y119126
X114046Y116586
X114046Y114046
X114046Y111506
X114046Y108966
X114046Y106426
X114046Y103886
X78486Y124206
X78486Y121666
X78486Y119126
X78486Y116586
X78486Y114046
X78486Y111506
X78486Y108966
X78486Y106426
T3
X101346Y19050
X97536Y19050
X93726Y19050
X89916Y19050
X86106Y19050
X106426Y22860
X102616Y22860
X98806Y22860
X94996Y22860
X91186Y22860
X87376Y22860
X105156Y26670
X101346Y26670
X97536Y26670
X93726Y26670
X89916Y26670
X86106Y26670
X106426Y30480
X102616Y30480
X98806Y30480
X94996Y30480
X91186Y30480
X87376Y30480
X105156Y34290
X101346Y34290
X97536Y34290
X93726Y34290
X89916Y34290
X86106Y34290
X100076Y46990
X101346Y44450
X101346Y41910
X97536Y41910
X103886Y41910
X109474Y44450
X107696Y41910
X106426Y41910
X109474Y41910
X110236Y46990
X91186Y41910
X86106Y41910
X94996Y41910
X88646Y41910
X111506Y29210
X106426Y38100
X102616Y37719
X98806Y38100
X94996Y38100
X91186Y38100
X87376Y37719
X112395Y11176
X103886Y41910
X106426Y41910
X102616Y41910
X82296Y12700
X112776Y17780
X111506Y5207
X82296Y7620
X105410Y1270
X102362Y1270
X29210Y56388
X30480Y52578
X26670Y52578
X22860Y52578
X19050Y52578
X15240Y52578
X11430Y52578
X7620Y52578
X25400Y56388
X21590Y56388
X17780Y56388
X13970Y56388
X10160Y56388
X27940Y60198
X24130Y60198
X20320Y60198
X16510Y60198
X12700Y60198
X8890Y60198
X29210Y64008
X25400Y64008
X21590Y64008
X17780Y64008
X13970Y64008
X10160Y64008
X27940Y67818
X24130Y67818
X20320Y67818
X16510Y67818
X12700Y67818
X8890Y67818
X29210Y71628
X25400Y71628
X21590Y71628
X17780Y71628
X13970Y71628
X10160Y71628
X27940Y75438
X24130Y75438
X20320Y75438
X16510Y75438
X12700Y75438
X8890Y75438
X29210Y79248
X25400Y79248
X21590Y79248
X17780Y79248
X13970Y79248
X10160Y79248
X27940Y83058
X24130Y83058
X20320Y83058
X16510Y83058
X12700Y83058
X8890Y83058
X22860Y95758
X24130Y93218
X24130Y90678
X20320Y90678
X26670Y90678
X32258Y93218
X30480Y90678
X29210Y90678
X32258Y90678
X33020Y95758
X13970Y90678
X8890Y90678
X17780Y90678
X11430Y90678
X34290Y77978
X29210Y86868
X25400Y86487
X21590Y86868
X17780Y86868
X13970Y86868
X10160Y86487
X35179Y59944
X26670Y90678
X29210Y90678
X25400Y90678
X5080Y61468
X35560Y66548
X34290Y53975
X5080Y56388
X28194Y50038
X25146Y50038
X67818Y56388
X69088Y52578
X65278Y52578
X61468Y52578
X57658Y52578
X53848Y52578
X50038Y52578
X46228Y52578
X64008Y56388
X60198Y56388
X56388Y56388
X52578Y56388
X48768Y56388
X66548Y60198
X62738Y60198
X58928Y60198
X55118Y60198
X51308Y60198
X47498Y60198
X67818Y64008
X64008Y64008
X60198Y64008
X56388Y64008
X52578Y64008
X48768Y64008
X66548Y67818
X62738Y67818
X58928Y67818
X55118Y67818
X51308Y67818
X47498Y67818
X67818Y71628
X64008Y71628
X60198Y71628
X56388Y71628
X52578Y71628
X48768Y71628
X66548Y75438
X62738Y75438
X58928Y75438
X55118Y75438
X51308Y75438
X47498Y75438
X67818Y79248
X64008Y79248
X60198Y79248
X56388Y79248
X52578Y79248
X48768Y79248
X66548Y83058
X62738Y83058
X58928Y83058
X55118Y83058
X51308Y83058
X47498Y83058
X61468Y95758
X62738Y93218
X62738Y90678
X58928Y90678
X65278Y90678
X70866Y93218
X69088Y90678
X67818Y90678
X70866Y90678
X71628Y95758
X52578Y90678
X47498Y90678
X56388Y90678
X50038Y90678
X72898Y77978
X67818Y86868
X64008Y86487
X60198Y86868
X56388Y86868
X52578Y86868
X48768Y86487
X73787Y59944
X65278Y90678
X67818Y90678
X64008Y90678
X43688Y61468
X74168Y66548
X72898Y53975
X43688Y56388
X66802Y50038
X63754Y50038
X106426Y56388
X107696Y52578
X103886Y52578
X100076Y52578
X96266Y52578
X92456Y52578
X88646Y52578
X84836Y52578
X102616Y56388
X98806Y56388
X94996Y56388
X91186Y56388
X87376Y56388
X105156Y60198
X101346Y60198
X97536Y60198
X93726Y60198
X89916Y60198
X86106Y60198
X106426Y64008
X102616Y64008
X98806Y64008
X94996Y64008
X91186Y64008
X87376Y64008
X105156Y67818
X101346Y67818
X97536Y67818
X93726Y67818
X89916Y67818
X86106Y67818
X106426Y71628
X102616Y71628
X98806Y71628
X94996Y71628
X91186Y71628
X87376Y71628
X105156Y75438
X101346Y75438
X97536Y75438
X93726Y75438
X89916Y75438
X86106Y75438
X106426Y79248
X102616Y79248
X98806Y79248
X94996Y79248
X91186Y79248
X87376Y79248
X105156Y83058
X101346Y83058
X97536Y83058
X93726Y83058
X89916Y83058
X86106Y83058
X100076Y95758
X52578Y22860
X101346Y90678
X97536Y90678
X103886Y90678
X109474Y93218
X107696Y90678
X106426Y90678
X109474Y90678
X110236Y95758
X91186Y90678
X86106Y90678
X94996Y90678
X88646Y90678
X111506Y77978
X106426Y86868
X102616Y86487
X98806Y86868
X94996Y86868
X91186Y86868
X87376Y86487
X112395Y59944
X103886Y90678
X106426Y90678
X102616Y90678
X82296Y61468
X112776Y66548
X111506Y53975
X82296Y56388
X105410Y50038
X102362Y50038
X29210Y105156
X30480Y101346
X26670Y101346
X22860Y101346
X19050Y101346
X15240Y101346
X11430Y101346
X7620Y101346
X25400Y105156
X21590Y105156
X17780Y105156
X13970Y105156
X10160Y105156
X27940Y108966
X24130Y108966
X20320Y108966
X16510Y108966
X12700Y108966
X8890Y108966
X29210Y112776
X25400Y112776
X21590Y112776
X17780Y112776
X13970Y112776
X10160Y112776
X27940Y116586
X24130Y116586
X20320Y116586
X16510Y116586
X12700Y116586
X8890Y116586
X29210Y120396
X25400Y120396
X21590Y120396
X17780Y120396
X13970Y120396
X10160Y120396
X27940Y124206
X24130Y124206
X20320Y124206
X16510Y124206
X12700Y124206
X8890Y124206
X29210Y128016
X25400Y128016
X21590Y128016
X17780Y128016
X13970Y128016
X10160Y128016
X27940Y131826
X24130Y131826
X20320Y131826
X16510Y131826
X12700Y131826
X8890Y131826
X22860Y144526
X24130Y141986
X24130Y139446
X20320Y139446
X26670Y139446
X32258Y141986
X30480Y139446
X29210Y139446
X32258Y139446
X33020Y144526
X13970Y139446
X8890Y139446
X17780Y139446
X11430Y139446
X34290Y126746
X29210Y135636
X25400Y135255
X21590Y135636
X17780Y135636
X13970Y135636
X10160Y135255
X35179Y108712
X26670Y139446
X29210Y139446
X25400Y139446
X5080Y110236
X35560Y115316
X34290Y102743
X5080Y105156
X28194Y98806
X25146Y98806
X67818Y105156
X69088Y101346
X65278Y101346
X61468Y101346
X57658Y101346
X53848Y101346
X50038Y101346
X46228Y101346
X64008Y105156
X60198Y105156
X56388Y105156
X52578Y105156
X48768Y105156
X66548Y108966
X62738Y108966
X58928Y108966
X55118Y108966
X51308Y108966
X47498Y108966
X67818Y112776
X64008Y112776
X60198Y112776
X56388Y112776
X52578Y112776
X48768Y112776
X66548Y116586
X62738Y116586
X58928Y116586
X55118Y116586
X51308Y116586
X47498Y116586
X67818Y120396
X64008Y120396
X60198Y120396
X56388Y120396
X52578Y120396
X48768Y120396
X66548Y124206
X62738Y124206
X58928Y124206
X55118Y124206
X51308Y124206
X47498Y124206
X67818Y128016
X64008Y128016
X60198Y128016
X56388Y128016
X52578Y128016
X48768Y128016
X66548Y131826
X62738Y131826
X58928Y131826
X55118Y131826
X51308Y131826
X47498Y131826
X61468Y144526
X62738Y141986
X62738Y139446
X58928Y139446
X65278Y139446
X70866Y141986
X69088Y139446
X67818Y139446
X70866Y139446
X71628Y144526
X52578Y139446
X47498Y139446
X56388Y139446
X50038Y139446
X72898Y126746
X67818Y135636
X64008Y135255
X60198Y135636
X56388Y135636
X52578Y135636
X48768Y135255
X73787Y108712
X65278Y139446
X67818Y139446
X64008Y139446
X43688Y110236
X74168Y115316
X72898Y102743
X43688Y105156
X66802Y98806
X63754Y98806
X106426Y105156
X107696Y101346
X103886Y101346
X100076Y101346
X96266Y101346
X92456Y101346
X88646Y101346
X84836Y101346
X102616Y105156
X98806Y105156
X94996Y105156
X91186Y105156
X87376Y105156
X105156Y108966
X101346Y108966
X97536Y108966
X93726Y108966
X89916Y108966
X86106Y108966
X106426Y112776
X102616Y112776
X98806Y112776
X94996Y112776
X91186Y112776
X87376Y112776
X105156Y116586
X101346Y116586
X97536Y116586
X93726Y116586
X89916Y116586
X86106Y116586
X106426Y120396
X102616Y120396
X98806Y120396
X94996Y120396
X91186Y120396
X87376Y120396
X105156Y124206
X101346Y124206
X97536Y124206
X93726Y124206
X29210Y7620
X86106Y124206
X106426Y128016
X102616Y128016
X98806Y128016
X94996Y128016
X91186Y128016
X87376Y128016
X105156Y131826
X101346Y131826
X97536Y131826
X93726Y131826
X89916Y131826
X86106Y131826
X100076Y144526
X101346Y141986
X101346Y139446
X97536Y139446
X103886Y139446
X109474Y141986
X107696Y139446
X106426Y139446
X109474Y139446
X110236Y144526
X91186Y139446
X86106Y139446
X94996Y139446
X88646Y139446
X111506Y126746
X106426Y135636
X102616Y135255
X98806Y135636
X94996Y135636
X91186Y135636
X87376Y135255
X112395Y108712
X103886Y139446
X106426Y139446
X102616Y139446
X82296Y110236
X112776Y115316
X111506Y102743
X82296Y105156
X105410Y98806
X102362Y98806
X30480Y3810
X26670Y3810
X22860Y3810
X19050Y3810
X15240Y3810
X11430Y3810
X7620Y3810
X25400Y7620
X21590Y7620
X17780Y7620
X13970Y7620
X10160Y7620
X27940Y11430
X24130Y11430
X20320Y11430
X16510Y11430
X12700Y11430
X8890Y11430
X29210Y15240
X25400Y15240
X21590Y15240
X17780Y15240
X13970Y15240
X10160Y15240
X27940Y19050
X24130Y19050
X20320Y19050
X16510Y19050
X12700Y19050
X8890Y19050
X29210Y22860
X25400Y22860
X21590Y22860
X17780Y22860
X13970Y22860
X10160Y22860
X27940Y26670
X24130Y26670
X20320Y26670
X16510Y26670
X12700Y26670
X8890Y26670
X29210Y30480
X25400Y30480
X21590Y30480
X17780Y30480
X13970Y30480
X10160Y30480
X27940Y34290
X24130Y34290
X20320Y34290
X16510Y34290
X12700Y34290
X8890Y34290
X22860Y46990
X24130Y44450
X24130Y41910
X20320Y41910
X26670Y41910
X32258Y44450
X30480Y41910
X29210Y41910
X32258Y41910
X33020Y46990
X13970Y41910
X8890Y41910
X17780Y41910
X11430Y41910
X34290Y29210
X29210Y38100
X25400Y37719
X21590Y38100
X17780Y38100
X13970Y38100
X10160Y37719
X35179Y11176
X101346Y93218
X26670Y41910
X29210Y41910
X25400Y41910
X5080Y12700
X35560Y17780
X34290Y5207
X5080Y7620
X28194Y1270
X25146Y1270
X67818Y7620
X69088Y3810
X65278Y3810
X61468Y3810
X57658Y3810
X53848Y3810
X50038Y3810
X46228Y3810
X64008Y7620
X60198Y7620
X56388Y7620
X52578Y7620
X48768Y7620
X66548Y11430
X62738Y11430
X58928Y11430
X55118Y11430
X51308Y11430
X47498Y11430
X67818Y15240
X64008Y15240
X60198Y15240
X56388Y15240
X52578Y15240
X48768Y15240
X66548Y19050
X62738Y19050
X58928Y19050
X55118Y19050
X51308Y19050
X47498Y19050
X67818Y22860
X64008Y22860
X60198Y22860
X56388Y22860
X48768Y22860
X66548Y26670
X62738Y26670
X58928Y26670
X55118Y26670
X51308Y26670
X47498Y26670
X67818Y30480
X64008Y30480
X60198Y30480
X56388Y30480
X52578Y30480
X48768Y30480
X66548Y34290
X62738Y34290
X58928Y34290
X55118Y34290
X51308Y34290
X47498Y34290
X61468Y46990
X62738Y44450
X62738Y41910
X58928Y41910
X65278Y41910
X70866Y44450
X69088Y41910
X67818Y41910
X70866Y41910
X71628Y46990
X52578Y41910
X47498Y41910
X56388Y41910
X50038Y41910
X72898Y29210
X67818Y38100
X64008Y37719
X60198Y38100
X56388Y38100
X52578Y38100
X48768Y37719
X73787Y11176
X65278Y41910
X67818Y41910
X64008Y41910
X43688Y12700
X74168Y17780
X72898Y5207
X43688Y7620
X66802Y1270
X63754Y1270
X106426Y7620
X107696Y3810
X103886Y3810
X100076Y3810
X96266Y3810
X92456Y3810
X88646Y3810
X84836Y3810
X102616Y7620
X98806Y7620
X94996Y7620
X91186Y7620
X87376Y7620
X105156Y11430
X101346Y11430
X97536Y11430
X93726Y11430
X89916Y11430
X86106Y11430
X106426Y15240
X102616Y15240
X98806Y15240
X94996Y15240
X91186Y15240
X87376Y15240
X105156Y19050
X89916Y124206
M30