G04 EAGLE Gerber RS-274X export*
G75*
%MOMM*%
%FSLAX34Y34*%
%LPD*%
%INSoldermask Top*%
%IPPOS*%
%AMOC8*
5,1,8,0,0,1.08239X$1,22.5*%
G01*
%ADD10C,0.838200*%
%ADD11C,3.505200*%
%ADD12R,1.303200X1.203200*%
%ADD13C,0.505344*%
%ADD14R,2.703200X1.703200*%
%ADD15R,1.703200X2.703200*%
%ADD16R,1.203200X1.303200*%
%ADD17R,1.703200X4.203200*%
%ADD18R,2.703200X1.403200*%
%ADD19C,2.082800*%
%ADD20C,1.203200*%
%ADD21C,1.270000*%
%ADD22C,1.703200*%


D10*
X373380Y7620D03*
X6350Y474980D03*
D11*
X25400Y457200D03*
X25400Y25400D03*
X355600Y457200D03*
X355600Y25400D03*
D12*
X334400Y62230D03*
X351400Y62230D03*
X334400Y78740D03*
X351400Y78740D03*
X334400Y99060D03*
X351400Y99060D03*
D13*
X185220Y16190D02*
X185220Y9210D01*
X178240Y9210D01*
X178240Y16190D01*
X185220Y16190D01*
X185220Y14010D02*
X178240Y14010D01*
X202760Y16190D02*
X202760Y9210D01*
X195780Y9210D01*
X195780Y16190D01*
X202760Y16190D01*
X202760Y14010D02*
X195780Y14010D01*
D14*
X69500Y65900D03*
X69500Y91300D03*
X69500Y116700D03*
X69500Y142100D03*
X69500Y167500D03*
X69500Y192900D03*
X69500Y218300D03*
X69500Y243700D03*
X69500Y269100D03*
X311500Y65900D03*
X311500Y91300D03*
X311500Y116700D03*
X311500Y142100D03*
X311500Y167500D03*
X311500Y192900D03*
X311500Y218300D03*
X311500Y243700D03*
X311500Y269100D03*
D15*
X280500Y396900D03*
X255100Y396900D03*
X125900Y396900D03*
X100500Y396900D03*
D16*
X38100Y105800D03*
X38100Y122800D03*
D17*
X255270Y447040D03*
X280670Y447040D03*
X306070Y447040D03*
D16*
X342900Y199000D03*
X342900Y182000D03*
X342900Y275200D03*
X342900Y258200D03*
X342900Y237100D03*
X342900Y220100D03*
D12*
X220100Y12700D03*
X237100Y12700D03*
D18*
X342900Y160010D03*
X342900Y127010D03*
D19*
X368300Y266700D03*
X368300Y241300D03*
X368300Y215900D03*
X368300Y190500D03*
X368300Y165100D03*
X368300Y139700D03*
X368300Y114300D03*
X368300Y88900D03*
X368300Y63500D03*
X12700Y266700D03*
X12700Y241300D03*
X12700Y215900D03*
X12700Y190500D03*
X12700Y165100D03*
X12700Y139700D03*
X12700Y114300D03*
X12700Y88900D03*
X12700Y63500D03*
D10*
X759460Y7620D03*
X392430Y474980D03*
D11*
X411480Y457200D03*
X411480Y25400D03*
X741680Y457200D03*
X741680Y25400D03*
D12*
X720480Y62230D03*
X737480Y62230D03*
X720480Y78740D03*
X737480Y78740D03*
X720480Y99060D03*
X737480Y99060D03*
D13*
X571300Y16190D02*
X571300Y9210D01*
X564320Y9210D01*
X564320Y16190D01*
X571300Y16190D01*
X571300Y14010D02*
X564320Y14010D01*
X588840Y16190D02*
X588840Y9210D01*
X581860Y9210D01*
X581860Y16190D01*
X588840Y16190D01*
X588840Y14010D02*
X581860Y14010D01*
D14*
X455580Y65900D03*
X455580Y91300D03*
X455580Y116700D03*
X455580Y142100D03*
X455580Y167500D03*
X455580Y192900D03*
X455580Y218300D03*
X455580Y243700D03*
X455580Y269100D03*
X697580Y65900D03*
X697580Y91300D03*
X697580Y116700D03*
X697580Y142100D03*
X697580Y167500D03*
X697580Y192900D03*
X697580Y218300D03*
X697580Y243700D03*
X697580Y269100D03*
D15*
X666580Y396900D03*
X641180Y396900D03*
X511980Y396900D03*
X486580Y396900D03*
D16*
X424180Y105800D03*
X424180Y122800D03*
D17*
X641350Y447040D03*
X666750Y447040D03*
X692150Y447040D03*
D16*
X728980Y199000D03*
X728980Y182000D03*
X728980Y275200D03*
X728980Y258200D03*
X728980Y237100D03*
X728980Y220100D03*
D12*
X606180Y12700D03*
X623180Y12700D03*
D18*
X728980Y160010D03*
X728980Y127010D03*
D19*
X754380Y266700D03*
X754380Y241300D03*
X754380Y215900D03*
X754380Y190500D03*
X754380Y165100D03*
X754380Y139700D03*
X754380Y114300D03*
X754380Y88900D03*
X754380Y63500D03*
X398780Y266700D03*
X398780Y241300D03*
X398780Y215900D03*
X398780Y190500D03*
X398780Y165100D03*
X398780Y139700D03*
X398780Y114300D03*
X398780Y88900D03*
X398780Y63500D03*
D10*
X1145540Y7620D03*
X778510Y474980D03*
D11*
X797560Y457200D03*
X797560Y25400D03*
X1127760Y457200D03*
X1127760Y25400D03*
D12*
X1106560Y62230D03*
X1123560Y62230D03*
X1106560Y78740D03*
X1123560Y78740D03*
X1106560Y99060D03*
X1123560Y99060D03*
D13*
X957380Y16190D02*
X957380Y9210D01*
X950400Y9210D01*
X950400Y16190D01*
X957380Y16190D01*
X957380Y14010D02*
X950400Y14010D01*
X974920Y16190D02*
X974920Y9210D01*
X967940Y9210D01*
X967940Y16190D01*
X974920Y16190D01*
X974920Y14010D02*
X967940Y14010D01*
D14*
X841660Y65900D03*
X841660Y91300D03*
X841660Y116700D03*
X841660Y142100D03*
X841660Y167500D03*
X841660Y192900D03*
X841660Y218300D03*
X841660Y243700D03*
X841660Y269100D03*
X1083660Y65900D03*
X1083660Y91300D03*
X1083660Y116700D03*
X1083660Y142100D03*
X1083660Y167500D03*
X1083660Y192900D03*
X1083660Y218300D03*
X1083660Y243700D03*
X1083660Y269100D03*
D15*
X1052660Y396900D03*
X1027260Y396900D03*
X898060Y396900D03*
X872660Y396900D03*
D16*
X810260Y105800D03*
X810260Y122800D03*
D17*
X1027430Y447040D03*
X1052830Y447040D03*
X1078230Y447040D03*
D16*
X1115060Y199000D03*
X1115060Y182000D03*
X1115060Y275200D03*
X1115060Y258200D03*
X1115060Y237100D03*
X1115060Y220100D03*
D12*
X992260Y12700D03*
X1009260Y12700D03*
D18*
X1115060Y160010D03*
X1115060Y127010D03*
D19*
X1140460Y266700D03*
X1140460Y241300D03*
X1140460Y215900D03*
X1140460Y190500D03*
X1140460Y165100D03*
X1140460Y139700D03*
X1140460Y114300D03*
X1140460Y88900D03*
X1140460Y63500D03*
X784860Y266700D03*
X784860Y241300D03*
X784860Y215900D03*
X784860Y190500D03*
X784860Y165100D03*
X784860Y139700D03*
X784860Y114300D03*
X784860Y88900D03*
X784860Y63500D03*
D10*
X373380Y495300D03*
X6350Y962660D03*
D11*
X25400Y944880D03*
X25400Y513080D03*
X355600Y944880D03*
X355600Y513080D03*
D12*
X334400Y549910D03*
X351400Y549910D03*
X334400Y566420D03*
X351400Y566420D03*
X334400Y586740D03*
X351400Y586740D03*
D13*
X185220Y503870D02*
X185220Y496890D01*
X178240Y496890D01*
X178240Y503870D01*
X185220Y503870D01*
X185220Y501690D02*
X178240Y501690D01*
X202760Y503870D02*
X202760Y496890D01*
X195780Y496890D01*
X195780Y503870D01*
X202760Y503870D01*
X202760Y501690D02*
X195780Y501690D01*
D14*
X69500Y553580D03*
X69500Y578980D03*
X69500Y604380D03*
X69500Y629780D03*
X69500Y655180D03*
X69500Y680580D03*
X69500Y705980D03*
X69500Y731380D03*
X69500Y756780D03*
X311500Y553580D03*
X311500Y578980D03*
X311500Y604380D03*
X311500Y629780D03*
X311500Y655180D03*
X311500Y680580D03*
X311500Y705980D03*
X311500Y731380D03*
X311500Y756780D03*
D15*
X280500Y884580D03*
X255100Y884580D03*
X125900Y884580D03*
X100500Y884580D03*
D16*
X38100Y593480D03*
X38100Y610480D03*
D17*
X255270Y934720D03*
X280670Y934720D03*
X306070Y934720D03*
D16*
X342900Y686680D03*
X342900Y669680D03*
X342900Y762880D03*
X342900Y745880D03*
X342900Y724780D03*
X342900Y707780D03*
D12*
X220100Y500380D03*
X237100Y500380D03*
D18*
X342900Y647690D03*
X342900Y614690D03*
D19*
X368300Y754380D03*
X368300Y728980D03*
X368300Y703580D03*
X368300Y678180D03*
X368300Y652780D03*
X368300Y627380D03*
X368300Y601980D03*
X368300Y576580D03*
X368300Y551180D03*
X12700Y754380D03*
X12700Y728980D03*
X12700Y703580D03*
X12700Y678180D03*
X12700Y652780D03*
X12700Y627380D03*
X12700Y601980D03*
X12700Y576580D03*
X12700Y551180D03*
D10*
X759460Y495300D03*
X392430Y962660D03*
D11*
X411480Y944880D03*
X411480Y513080D03*
X741680Y944880D03*
X741680Y513080D03*
D12*
X720480Y549910D03*
X737480Y549910D03*
X720480Y566420D03*
X737480Y566420D03*
X720480Y586740D03*
X737480Y586740D03*
D13*
X571300Y503870D02*
X571300Y496890D01*
X564320Y496890D01*
X564320Y503870D01*
X571300Y503870D01*
X571300Y501690D02*
X564320Y501690D01*
X588840Y503870D02*
X588840Y496890D01*
X581860Y496890D01*
X581860Y503870D01*
X588840Y503870D01*
X588840Y501690D02*
X581860Y501690D01*
D14*
X455580Y553580D03*
X455580Y578980D03*
X455580Y604380D03*
X455580Y629780D03*
X455580Y655180D03*
X455580Y680580D03*
X455580Y705980D03*
X455580Y731380D03*
X455580Y756780D03*
X697580Y553580D03*
X697580Y578980D03*
X697580Y604380D03*
X697580Y629780D03*
X697580Y655180D03*
X697580Y680580D03*
X697580Y705980D03*
X697580Y731380D03*
X697580Y756780D03*
D15*
X666580Y884580D03*
X641180Y884580D03*
X511980Y884580D03*
X486580Y884580D03*
D16*
X424180Y593480D03*
X424180Y610480D03*
D17*
X641350Y934720D03*
X666750Y934720D03*
X692150Y934720D03*
D16*
X728980Y686680D03*
X728980Y669680D03*
X728980Y762880D03*
X728980Y745880D03*
X728980Y724780D03*
X728980Y707780D03*
D12*
X606180Y500380D03*
X623180Y500380D03*
D18*
X728980Y647690D03*
X728980Y614690D03*
D19*
X754380Y754380D03*
X754380Y728980D03*
X754380Y703580D03*
X754380Y678180D03*
X754380Y652780D03*
X754380Y627380D03*
X754380Y601980D03*
X754380Y576580D03*
X754380Y551180D03*
X398780Y754380D03*
X398780Y728980D03*
X398780Y703580D03*
X398780Y678180D03*
X398780Y652780D03*
X398780Y627380D03*
X398780Y601980D03*
X398780Y576580D03*
X398780Y551180D03*
D10*
X1145540Y495300D03*
X778510Y962660D03*
D11*
X797560Y944880D03*
X797560Y513080D03*
X1127760Y944880D03*
X1127760Y513080D03*
D12*
X1106560Y549910D03*
X1123560Y549910D03*
X1106560Y566420D03*
X1123560Y566420D03*
X1106560Y586740D03*
X1123560Y586740D03*
D13*
X957380Y503870D02*
X957380Y496890D01*
X950400Y496890D01*
X950400Y503870D01*
X957380Y503870D01*
X957380Y501690D02*
X950400Y501690D01*
X974920Y503870D02*
X974920Y496890D01*
X967940Y496890D01*
X967940Y503870D01*
X974920Y503870D01*
X974920Y501690D02*
X967940Y501690D01*
D14*
X841660Y553580D03*
X841660Y578980D03*
X841660Y604380D03*
X841660Y629780D03*
X841660Y655180D03*
X841660Y680580D03*
X841660Y705980D03*
X841660Y731380D03*
X841660Y756780D03*
X1083660Y553580D03*
X1083660Y578980D03*
X1083660Y604380D03*
X1083660Y629780D03*
X1083660Y655180D03*
X1083660Y680580D03*
X1083660Y705980D03*
X1083660Y731380D03*
X1083660Y756780D03*
D15*
X1052660Y884580D03*
X1027260Y884580D03*
X898060Y884580D03*
X872660Y884580D03*
D16*
X810260Y593480D03*
X810260Y610480D03*
D17*
X1027430Y934720D03*
X1052830Y934720D03*
X1078230Y934720D03*
D16*
X1115060Y686680D03*
X1115060Y669680D03*
X1115060Y762880D03*
X1115060Y745880D03*
X1115060Y724780D03*
X1115060Y707780D03*
D12*
X992260Y500380D03*
X1009260Y500380D03*
D18*
X1115060Y647690D03*
X1115060Y614690D03*
D19*
X1140460Y754380D03*
X1140460Y728980D03*
X1140460Y703580D03*
X1140460Y678180D03*
X1140460Y652780D03*
X1140460Y627380D03*
X1140460Y601980D03*
X1140460Y576580D03*
X1140460Y551180D03*
X784860Y754380D03*
X784860Y728980D03*
X784860Y703580D03*
X784860Y678180D03*
X784860Y652780D03*
X784860Y627380D03*
X784860Y601980D03*
X784860Y576580D03*
X784860Y551180D03*
D10*
X373380Y982980D03*
X6350Y1450340D03*
D11*
X25400Y1432560D03*
X25400Y1000760D03*
X355600Y1432560D03*
X355600Y1000760D03*
D12*
X334400Y1037590D03*
X351400Y1037590D03*
X334400Y1054100D03*
X351400Y1054100D03*
X334400Y1074420D03*
X351400Y1074420D03*
D13*
X185220Y991550D02*
X185220Y984570D01*
X178240Y984570D01*
X178240Y991550D01*
X185220Y991550D01*
X185220Y989370D02*
X178240Y989370D01*
X202760Y991550D02*
X202760Y984570D01*
X195780Y984570D01*
X195780Y991550D01*
X202760Y991550D01*
X202760Y989370D02*
X195780Y989370D01*
D14*
X69500Y1041260D03*
X69500Y1066660D03*
X69500Y1092060D03*
X69500Y1117460D03*
X69500Y1142860D03*
X69500Y1168260D03*
X69500Y1193660D03*
X69500Y1219060D03*
X69500Y1244460D03*
X311500Y1041260D03*
X311500Y1066660D03*
X311500Y1092060D03*
X311500Y1117460D03*
X311500Y1142860D03*
X311500Y1168260D03*
X311500Y1193660D03*
X311500Y1219060D03*
X311500Y1244460D03*
D15*
X280500Y1372260D03*
X255100Y1372260D03*
X125900Y1372260D03*
X100500Y1372260D03*
D16*
X38100Y1081160D03*
X38100Y1098160D03*
D17*
X255270Y1422400D03*
X280670Y1422400D03*
X306070Y1422400D03*
D16*
X342900Y1174360D03*
X342900Y1157360D03*
X342900Y1250560D03*
X342900Y1233560D03*
X342900Y1212460D03*
X342900Y1195460D03*
D12*
X220100Y988060D03*
X237100Y988060D03*
D18*
X342900Y1135370D03*
X342900Y1102370D03*
D19*
X368300Y1242060D03*
X368300Y1216660D03*
X368300Y1191260D03*
X368300Y1165860D03*
X368300Y1140460D03*
X368300Y1115060D03*
X368300Y1089660D03*
X368300Y1064260D03*
X368300Y1038860D03*
X12700Y1242060D03*
X12700Y1216660D03*
X12700Y1191260D03*
X12700Y1165860D03*
X12700Y1140460D03*
X12700Y1115060D03*
X12700Y1089660D03*
X12700Y1064260D03*
X12700Y1038860D03*
D10*
X759460Y982980D03*
X392430Y1450340D03*
D11*
X411480Y1432560D03*
X411480Y1000760D03*
X741680Y1432560D03*
X741680Y1000760D03*
D12*
X720480Y1037590D03*
X737480Y1037590D03*
X720480Y1054100D03*
X737480Y1054100D03*
X720480Y1074420D03*
X737480Y1074420D03*
D13*
X571300Y991550D02*
X571300Y984570D01*
X564320Y984570D01*
X564320Y991550D01*
X571300Y991550D01*
X571300Y989370D02*
X564320Y989370D01*
X588840Y991550D02*
X588840Y984570D01*
X581860Y984570D01*
X581860Y991550D01*
X588840Y991550D01*
X588840Y989370D02*
X581860Y989370D01*
D14*
X455580Y1041260D03*
X455580Y1066660D03*
X455580Y1092060D03*
X455580Y1117460D03*
X455580Y1142860D03*
X455580Y1168260D03*
X455580Y1193660D03*
X455580Y1219060D03*
X455580Y1244460D03*
X697580Y1041260D03*
X697580Y1066660D03*
X697580Y1092060D03*
X697580Y1117460D03*
X697580Y1142860D03*
X697580Y1168260D03*
X697580Y1193660D03*
X697580Y1219060D03*
X697580Y1244460D03*
D15*
X666580Y1372260D03*
X641180Y1372260D03*
X511980Y1372260D03*
X486580Y1372260D03*
D16*
X424180Y1081160D03*
X424180Y1098160D03*
D17*
X641350Y1422400D03*
X666750Y1422400D03*
X692150Y1422400D03*
D16*
X728980Y1174360D03*
X728980Y1157360D03*
X728980Y1250560D03*
X728980Y1233560D03*
X728980Y1212460D03*
X728980Y1195460D03*
D12*
X606180Y988060D03*
X623180Y988060D03*
D18*
X728980Y1135370D03*
X728980Y1102370D03*
D19*
X754380Y1242060D03*
X754380Y1216660D03*
X754380Y1191260D03*
X754380Y1165860D03*
X754380Y1140460D03*
X754380Y1115060D03*
X754380Y1089660D03*
X754380Y1064260D03*
X754380Y1038860D03*
X398780Y1242060D03*
X398780Y1216660D03*
X398780Y1191260D03*
X398780Y1165860D03*
X398780Y1140460D03*
X398780Y1115060D03*
X398780Y1089660D03*
X398780Y1064260D03*
X398780Y1038860D03*
D10*
X1145540Y982980D03*
X778510Y1450340D03*
D11*
X797560Y1432560D03*
X797560Y1000760D03*
X1127760Y1432560D03*
X1127760Y1000760D03*
D12*
X1106560Y1037590D03*
X1123560Y1037590D03*
X1106560Y1054100D03*
X1123560Y1054100D03*
X1106560Y1074420D03*
X1123560Y1074420D03*
D13*
X957380Y991550D02*
X957380Y984570D01*
X950400Y984570D01*
X950400Y991550D01*
X957380Y991550D01*
X957380Y989370D02*
X950400Y989370D01*
X974920Y991550D02*
X974920Y984570D01*
X967940Y984570D01*
X967940Y991550D01*
X974920Y991550D01*
X974920Y989370D02*
X967940Y989370D01*
D14*
X841660Y1041260D03*
X841660Y1066660D03*
X841660Y1092060D03*
X841660Y1117460D03*
X841660Y1142860D03*
X841660Y1168260D03*
X841660Y1193660D03*
X841660Y1219060D03*
X841660Y1244460D03*
X1083660Y1041260D03*
X1083660Y1066660D03*
X1083660Y1092060D03*
X1083660Y1117460D03*
X1083660Y1142860D03*
X1083660Y1168260D03*
X1083660Y1193660D03*
X1083660Y1219060D03*
X1083660Y1244460D03*
D15*
X1052660Y1372260D03*
X1027260Y1372260D03*
X898060Y1372260D03*
X872660Y1372260D03*
D16*
X810260Y1081160D03*
X810260Y1098160D03*
D17*
X1027430Y1422400D03*
X1052830Y1422400D03*
X1078230Y1422400D03*
D16*
X1115060Y1174360D03*
X1115060Y1157360D03*
X1115060Y1250560D03*
X1115060Y1233560D03*
X1115060Y1212460D03*
X1115060Y1195460D03*
D12*
X992260Y988060D03*
X1009260Y988060D03*
D18*
X1115060Y1135370D03*
X1115060Y1102370D03*
D19*
X1140460Y1242060D03*
X1140460Y1216660D03*
X1140460Y1191260D03*
X1140460Y1165860D03*
X1140460Y1140460D03*
X1140460Y1115060D03*
X1140460Y1089660D03*
X1140460Y1064260D03*
X1140460Y1038860D03*
X784860Y1242060D03*
X784860Y1216660D03*
X784860Y1191260D03*
X784860Y1165860D03*
X784860Y1140460D03*
X784860Y1115060D03*
X784860Y1089660D03*
X784860Y1064260D03*
X784860Y1038860D03*
D20*
X-26238Y1431290D03*
X1179398Y1431290D03*
D21*
X-35293Y63500D02*
X-35290Y63722D01*
X-35282Y63944D01*
X-35268Y64166D01*
X-35249Y64388D01*
X-35225Y64608D01*
X-35195Y64829D01*
X-35160Y65048D01*
X-35119Y65267D01*
X-35073Y65484D01*
X-35022Y65700D01*
X-34965Y65915D01*
X-34903Y66129D01*
X-34836Y66340D01*
X-34764Y66551D01*
X-34686Y66759D01*
X-34604Y66965D01*
X-34516Y67169D01*
X-34424Y67372D01*
X-34326Y67571D01*
X-34224Y67768D01*
X-34117Y67963D01*
X-34005Y68155D01*
X-33888Y68344D01*
X-33767Y68531D01*
X-33641Y68714D01*
X-33511Y68894D01*
X-33376Y69071D01*
X-33238Y69244D01*
X-33095Y69414D01*
X-32947Y69581D01*
X-32796Y69744D01*
X-32641Y69903D01*
X-32482Y70058D01*
X-32319Y70209D01*
X-32152Y70357D01*
X-31982Y70500D01*
X-31809Y70638D01*
X-31632Y70773D01*
X-31452Y70903D01*
X-31269Y71029D01*
X-31082Y71150D01*
X-30893Y71267D01*
X-30701Y71379D01*
X-30506Y71486D01*
X-30309Y71588D01*
X-30110Y71686D01*
X-29907Y71778D01*
X-29703Y71866D01*
X-29497Y71948D01*
X-29289Y72026D01*
X-29078Y72098D01*
X-28867Y72165D01*
X-28653Y72227D01*
X-28438Y72284D01*
X-28222Y72335D01*
X-28005Y72381D01*
X-27786Y72422D01*
X-27567Y72457D01*
X-27346Y72487D01*
X-27126Y72511D01*
X-26904Y72530D01*
X-26682Y72544D01*
X-26460Y72552D01*
X-26238Y72555D01*
X-26016Y72552D01*
X-25794Y72544D01*
X-25572Y72530D01*
X-25350Y72511D01*
X-25130Y72487D01*
X-24909Y72457D01*
X-24690Y72422D01*
X-24471Y72381D01*
X-24254Y72335D01*
X-24038Y72284D01*
X-23823Y72227D01*
X-23609Y72165D01*
X-23398Y72098D01*
X-23187Y72026D01*
X-22979Y71948D01*
X-22773Y71866D01*
X-22569Y71778D01*
X-22366Y71686D01*
X-22167Y71588D01*
X-21970Y71486D01*
X-21775Y71379D01*
X-21583Y71267D01*
X-21394Y71150D01*
X-21207Y71029D01*
X-21024Y70903D01*
X-20844Y70773D01*
X-20667Y70638D01*
X-20494Y70500D01*
X-20324Y70357D01*
X-20157Y70209D01*
X-19994Y70058D01*
X-19835Y69903D01*
X-19680Y69744D01*
X-19529Y69581D01*
X-19381Y69414D01*
X-19238Y69244D01*
X-19100Y69071D01*
X-18965Y68894D01*
X-18835Y68714D01*
X-18709Y68531D01*
X-18588Y68344D01*
X-18471Y68155D01*
X-18359Y67963D01*
X-18252Y67768D01*
X-18150Y67571D01*
X-18052Y67372D01*
X-17960Y67169D01*
X-17872Y66965D01*
X-17790Y66759D01*
X-17712Y66551D01*
X-17640Y66340D01*
X-17573Y66129D01*
X-17511Y65915D01*
X-17454Y65700D01*
X-17403Y65484D01*
X-17357Y65267D01*
X-17316Y65048D01*
X-17281Y64829D01*
X-17251Y64608D01*
X-17227Y64388D01*
X-17208Y64166D01*
X-17194Y63944D01*
X-17186Y63722D01*
X-17183Y63500D01*
X-17186Y63278D01*
X-17194Y63056D01*
X-17208Y62834D01*
X-17227Y62612D01*
X-17251Y62392D01*
X-17281Y62171D01*
X-17316Y61952D01*
X-17357Y61733D01*
X-17403Y61516D01*
X-17454Y61300D01*
X-17511Y61085D01*
X-17573Y60871D01*
X-17640Y60660D01*
X-17712Y60449D01*
X-17790Y60241D01*
X-17872Y60035D01*
X-17960Y59831D01*
X-18052Y59628D01*
X-18150Y59429D01*
X-18252Y59232D01*
X-18359Y59037D01*
X-18471Y58845D01*
X-18588Y58656D01*
X-18709Y58469D01*
X-18835Y58286D01*
X-18965Y58106D01*
X-19100Y57929D01*
X-19238Y57756D01*
X-19381Y57586D01*
X-19529Y57419D01*
X-19680Y57256D01*
X-19835Y57097D01*
X-19994Y56942D01*
X-20157Y56791D01*
X-20324Y56643D01*
X-20494Y56500D01*
X-20667Y56362D01*
X-20844Y56227D01*
X-21024Y56097D01*
X-21207Y55971D01*
X-21394Y55850D01*
X-21583Y55733D01*
X-21775Y55621D01*
X-21970Y55514D01*
X-22167Y55412D01*
X-22366Y55314D01*
X-22569Y55222D01*
X-22773Y55134D01*
X-22979Y55052D01*
X-23187Y54974D01*
X-23398Y54902D01*
X-23609Y54835D01*
X-23823Y54773D01*
X-24038Y54716D01*
X-24254Y54665D01*
X-24471Y54619D01*
X-24690Y54578D01*
X-24909Y54543D01*
X-25130Y54513D01*
X-25350Y54489D01*
X-25572Y54470D01*
X-25794Y54456D01*
X-26016Y54448D01*
X-26238Y54445D01*
X-26460Y54448D01*
X-26682Y54456D01*
X-26904Y54470D01*
X-27126Y54489D01*
X-27346Y54513D01*
X-27567Y54543D01*
X-27786Y54578D01*
X-28005Y54619D01*
X-28222Y54665D01*
X-28438Y54716D01*
X-28653Y54773D01*
X-28867Y54835D01*
X-29078Y54902D01*
X-29289Y54974D01*
X-29497Y55052D01*
X-29703Y55134D01*
X-29907Y55222D01*
X-30110Y55314D01*
X-30309Y55412D01*
X-30506Y55514D01*
X-30701Y55621D01*
X-30893Y55733D01*
X-31082Y55850D01*
X-31269Y55971D01*
X-31452Y56097D01*
X-31632Y56227D01*
X-31809Y56362D01*
X-31982Y56500D01*
X-32152Y56643D01*
X-32319Y56791D01*
X-32482Y56942D01*
X-32641Y57097D01*
X-32796Y57256D01*
X-32947Y57419D01*
X-33095Y57586D01*
X-33238Y57756D01*
X-33376Y57929D01*
X-33511Y58106D01*
X-33641Y58286D01*
X-33767Y58469D01*
X-33888Y58656D01*
X-34005Y58845D01*
X-34117Y59037D01*
X-34224Y59232D01*
X-34326Y59429D01*
X-34424Y59628D01*
X-34516Y59831D01*
X-34604Y60035D01*
X-34686Y60241D01*
X-34764Y60449D01*
X-34836Y60660D01*
X-34903Y60871D01*
X-34965Y61085D01*
X-35022Y61300D01*
X-35073Y61516D01*
X-35119Y61733D01*
X-35160Y61952D01*
X-35195Y62171D01*
X-35225Y62392D01*
X-35249Y62612D01*
X-35268Y62834D01*
X-35282Y63056D01*
X-35290Y63278D01*
X-35293Y63500D01*
D22*
X-26238Y63500D03*
M02*
