G04 EAGLE Gerber RS-274X export*
G75*
%MOMM*%
%FSLAX34Y34*%
%LPD*%
%INSolderpaste Top*%
%IPPOS*%
%AMOC8*
5,1,8,0,0,1.08239X$1,22.5*%
G01*
%ADD10R,1.100000X1.000000*%
%ADD11C,0.300000*%
%ADD12R,3.400000X2.200000*%
%ADD13R,2.254000X3.254000*%
%ADD14R,1.000000X1.100000*%
%ADD15R,2.500000X1.200000*%


D10*
X334400Y62230D03*
X351400Y62230D03*
X334400Y78740D03*
X351400Y78740D03*
X334400Y99060D03*
X351400Y99060D03*
D11*
X185230Y16200D02*
X185230Y9200D01*
X178230Y9200D01*
X178230Y16200D01*
X185230Y16200D01*
X185230Y12050D02*
X178230Y12050D01*
X178230Y14900D02*
X185230Y14900D01*
X202770Y16200D02*
X202770Y9200D01*
X195770Y9200D01*
X195770Y16200D01*
X202770Y16200D01*
X202770Y12050D02*
X195770Y12050D01*
X195770Y14900D02*
X202770Y14900D01*
D12*
X311500Y65900D03*
D13*
X280500Y396900D03*
X255100Y396900D03*
X125900Y396900D03*
X100500Y396900D03*
D12*
X311500Y91300D03*
X311500Y116700D03*
X311500Y142100D03*
X311500Y167500D03*
X311500Y192900D03*
X311500Y218300D03*
X311500Y243700D03*
X311500Y269100D03*
X70200Y65900D03*
X70200Y91300D03*
X70200Y116700D03*
X70200Y142100D03*
X70200Y167500D03*
X70200Y192900D03*
X70200Y218300D03*
X70200Y243700D03*
X70200Y269100D03*
D14*
X38100Y105800D03*
X38100Y122800D03*
X342900Y199000D03*
X342900Y182000D03*
X342900Y275200D03*
X342900Y258200D03*
X342900Y237100D03*
X342900Y220100D03*
D10*
X220100Y12700D03*
X237100Y12700D03*
D15*
X342900Y160010D03*
X342900Y127010D03*
D10*
X720480Y62230D03*
X737480Y62230D03*
X720480Y78740D03*
X737480Y78740D03*
X720480Y99060D03*
X737480Y99060D03*
D11*
X571310Y16200D02*
X571310Y9200D01*
X564310Y9200D01*
X564310Y16200D01*
X571310Y16200D01*
X571310Y12050D02*
X564310Y12050D01*
X564310Y14900D02*
X571310Y14900D01*
X588850Y16200D02*
X588850Y9200D01*
X581850Y9200D01*
X581850Y16200D01*
X588850Y16200D01*
X588850Y12050D02*
X581850Y12050D01*
X581850Y14900D02*
X588850Y14900D01*
D12*
X697580Y65900D03*
D13*
X666580Y396900D03*
X641180Y396900D03*
X511980Y396900D03*
X486580Y396900D03*
D12*
X697580Y91300D03*
X697580Y116700D03*
X697580Y142100D03*
X697580Y167500D03*
X697580Y192900D03*
X697580Y218300D03*
X697580Y243700D03*
X697580Y269100D03*
X456280Y65900D03*
X456280Y91300D03*
X456280Y116700D03*
X456280Y142100D03*
X456280Y167500D03*
X456280Y192900D03*
X456280Y218300D03*
X456280Y243700D03*
X456280Y269100D03*
D14*
X424180Y105800D03*
X424180Y122800D03*
X728980Y199000D03*
X728980Y182000D03*
X728980Y275200D03*
X728980Y258200D03*
X728980Y237100D03*
X728980Y220100D03*
D10*
X606180Y12700D03*
X623180Y12700D03*
D15*
X728980Y160010D03*
X728980Y127010D03*
D10*
X1106560Y62230D03*
X1123560Y62230D03*
X1106560Y78740D03*
X1123560Y78740D03*
X1106560Y99060D03*
X1123560Y99060D03*
D11*
X957390Y16200D02*
X957390Y9200D01*
X950390Y9200D01*
X950390Y16200D01*
X957390Y16200D01*
X957390Y12050D02*
X950390Y12050D01*
X950390Y14900D02*
X957390Y14900D01*
X974930Y16200D02*
X974930Y9200D01*
X967930Y9200D01*
X967930Y16200D01*
X974930Y16200D01*
X974930Y12050D02*
X967930Y12050D01*
X967930Y14900D02*
X974930Y14900D01*
D12*
X1083660Y65900D03*
D13*
X1052660Y396900D03*
X1027260Y396900D03*
X898060Y396900D03*
X872660Y396900D03*
D12*
X1083660Y91300D03*
X1083660Y116700D03*
X1083660Y142100D03*
X1083660Y167500D03*
X1083660Y192900D03*
X1083660Y218300D03*
X1083660Y243700D03*
X1083660Y269100D03*
X842360Y65900D03*
X842360Y91300D03*
X842360Y116700D03*
X842360Y142100D03*
X842360Y167500D03*
X842360Y192900D03*
X842360Y218300D03*
X842360Y243700D03*
X842360Y269100D03*
D14*
X810260Y105800D03*
X810260Y122800D03*
X1115060Y199000D03*
X1115060Y182000D03*
X1115060Y275200D03*
X1115060Y258200D03*
X1115060Y237100D03*
X1115060Y220100D03*
D10*
X992260Y12700D03*
X1009260Y12700D03*
D15*
X1115060Y160010D03*
X1115060Y127010D03*
D10*
X334400Y549910D03*
X351400Y549910D03*
X334400Y566420D03*
X351400Y566420D03*
X334400Y586740D03*
X351400Y586740D03*
D11*
X185230Y503880D02*
X185230Y496880D01*
X178230Y496880D01*
X178230Y503880D01*
X185230Y503880D01*
X185230Y499730D02*
X178230Y499730D01*
X178230Y502580D02*
X185230Y502580D01*
X202770Y503880D02*
X202770Y496880D01*
X195770Y496880D01*
X195770Y503880D01*
X202770Y503880D01*
X202770Y499730D02*
X195770Y499730D01*
X195770Y502580D02*
X202770Y502580D01*
D12*
X311500Y553580D03*
D13*
X280500Y884580D03*
X255100Y884580D03*
X125900Y884580D03*
X100500Y884580D03*
D12*
X311500Y578980D03*
X311500Y604380D03*
X311500Y629780D03*
X311500Y655180D03*
X311500Y680580D03*
X311500Y705980D03*
X311500Y731380D03*
X311500Y756780D03*
X70200Y553580D03*
X70200Y578980D03*
X70200Y604380D03*
X70200Y629780D03*
X70200Y655180D03*
X70200Y680580D03*
X70200Y705980D03*
X70200Y731380D03*
X70200Y756780D03*
D14*
X38100Y593480D03*
X38100Y610480D03*
X342900Y686680D03*
X342900Y669680D03*
X342900Y762880D03*
X342900Y745880D03*
X342900Y724780D03*
X342900Y707780D03*
D10*
X220100Y500380D03*
X237100Y500380D03*
D15*
X342900Y647690D03*
X342900Y614690D03*
D10*
X720480Y549910D03*
X737480Y549910D03*
X720480Y566420D03*
X737480Y566420D03*
X720480Y586740D03*
X737480Y586740D03*
D11*
X571310Y503880D02*
X571310Y496880D01*
X564310Y496880D01*
X564310Y503880D01*
X571310Y503880D01*
X571310Y499730D02*
X564310Y499730D01*
X564310Y502580D02*
X571310Y502580D01*
X588850Y503880D02*
X588850Y496880D01*
X581850Y496880D01*
X581850Y503880D01*
X588850Y503880D01*
X588850Y499730D02*
X581850Y499730D01*
X581850Y502580D02*
X588850Y502580D01*
D12*
X697580Y553580D03*
D13*
X666580Y884580D03*
X641180Y884580D03*
X511980Y884580D03*
X486580Y884580D03*
D12*
X697580Y578980D03*
X697580Y604380D03*
X697580Y629780D03*
X697580Y655180D03*
X697580Y680580D03*
X697580Y705980D03*
X697580Y731380D03*
X697580Y756780D03*
X456280Y553580D03*
X456280Y578980D03*
X456280Y604380D03*
X456280Y629780D03*
X456280Y655180D03*
X456280Y680580D03*
X456280Y705980D03*
X456280Y731380D03*
X456280Y756780D03*
D14*
X424180Y593480D03*
X424180Y610480D03*
X728980Y686680D03*
X728980Y669680D03*
X728980Y762880D03*
X728980Y745880D03*
X728980Y724780D03*
X728980Y707780D03*
D10*
X606180Y500380D03*
X623180Y500380D03*
D15*
X728980Y647690D03*
X728980Y614690D03*
D10*
X1106560Y549910D03*
X1123560Y549910D03*
X1106560Y566420D03*
X1123560Y566420D03*
X1106560Y586740D03*
X1123560Y586740D03*
D11*
X957390Y503880D02*
X957390Y496880D01*
X950390Y496880D01*
X950390Y503880D01*
X957390Y503880D01*
X957390Y499730D02*
X950390Y499730D01*
X950390Y502580D02*
X957390Y502580D01*
X974930Y503880D02*
X974930Y496880D01*
X967930Y496880D01*
X967930Y503880D01*
X974930Y503880D01*
X974930Y499730D02*
X967930Y499730D01*
X967930Y502580D02*
X974930Y502580D01*
D12*
X1083660Y553580D03*
D13*
X1052660Y884580D03*
X1027260Y884580D03*
X898060Y884580D03*
X872660Y884580D03*
D12*
X1083660Y578980D03*
X1083660Y604380D03*
X1083660Y629780D03*
X1083660Y655180D03*
X1083660Y680580D03*
X1083660Y705980D03*
X1083660Y731380D03*
X1083660Y756780D03*
X842360Y553580D03*
X842360Y578980D03*
X842360Y604380D03*
X842360Y629780D03*
X842360Y655180D03*
X842360Y680580D03*
X842360Y705980D03*
X842360Y731380D03*
X842360Y756780D03*
D14*
X810260Y593480D03*
X810260Y610480D03*
X1115060Y686680D03*
X1115060Y669680D03*
X1115060Y762880D03*
X1115060Y745880D03*
X1115060Y724780D03*
X1115060Y707780D03*
D10*
X992260Y500380D03*
X1009260Y500380D03*
D15*
X1115060Y647690D03*
X1115060Y614690D03*
D10*
X334400Y1037590D03*
X351400Y1037590D03*
X334400Y1054100D03*
X351400Y1054100D03*
X334400Y1074420D03*
X351400Y1074420D03*
D11*
X185230Y991560D02*
X185230Y984560D01*
X178230Y984560D01*
X178230Y991560D01*
X185230Y991560D01*
X185230Y987410D02*
X178230Y987410D01*
X178230Y990260D02*
X185230Y990260D01*
X202770Y991560D02*
X202770Y984560D01*
X195770Y984560D01*
X195770Y991560D01*
X202770Y991560D01*
X202770Y987410D02*
X195770Y987410D01*
X195770Y990260D02*
X202770Y990260D01*
D12*
X311500Y1041260D03*
D13*
X280500Y1372260D03*
X255100Y1372260D03*
X125900Y1372260D03*
X100500Y1372260D03*
D12*
X311500Y1066660D03*
X311500Y1092060D03*
X311500Y1117460D03*
X311500Y1142860D03*
X311500Y1168260D03*
X311500Y1193660D03*
X311500Y1219060D03*
X311500Y1244460D03*
X70200Y1041260D03*
X70200Y1066660D03*
X70200Y1092060D03*
X70200Y1117460D03*
X70200Y1142860D03*
X70200Y1168260D03*
X70200Y1193660D03*
X70200Y1219060D03*
X70200Y1244460D03*
D14*
X38100Y1081160D03*
X38100Y1098160D03*
X342900Y1174360D03*
X342900Y1157360D03*
X342900Y1250560D03*
X342900Y1233560D03*
X342900Y1212460D03*
X342900Y1195460D03*
D10*
X220100Y988060D03*
X237100Y988060D03*
D15*
X342900Y1135370D03*
X342900Y1102370D03*
D10*
X720480Y1037590D03*
X737480Y1037590D03*
X720480Y1054100D03*
X737480Y1054100D03*
X720480Y1074420D03*
X737480Y1074420D03*
D11*
X571310Y991560D02*
X571310Y984560D01*
X564310Y984560D01*
X564310Y991560D01*
X571310Y991560D01*
X571310Y987410D02*
X564310Y987410D01*
X564310Y990260D02*
X571310Y990260D01*
X588850Y991560D02*
X588850Y984560D01*
X581850Y984560D01*
X581850Y991560D01*
X588850Y991560D01*
X588850Y987410D02*
X581850Y987410D01*
X581850Y990260D02*
X588850Y990260D01*
D12*
X697580Y1041260D03*
D13*
X666580Y1372260D03*
X641180Y1372260D03*
X511980Y1372260D03*
X486580Y1372260D03*
D12*
X697580Y1066660D03*
X697580Y1092060D03*
X697580Y1117460D03*
X697580Y1142860D03*
X697580Y1168260D03*
X697580Y1193660D03*
X697580Y1219060D03*
X697580Y1244460D03*
X456280Y1041260D03*
X456280Y1066660D03*
X456280Y1092060D03*
X456280Y1117460D03*
X456280Y1142860D03*
X456280Y1168260D03*
X456280Y1193660D03*
X456280Y1219060D03*
X456280Y1244460D03*
D14*
X424180Y1081160D03*
X424180Y1098160D03*
X728980Y1174360D03*
X728980Y1157360D03*
X728980Y1250560D03*
X728980Y1233560D03*
X728980Y1212460D03*
X728980Y1195460D03*
D10*
X606180Y988060D03*
X623180Y988060D03*
D15*
X728980Y1135370D03*
X728980Y1102370D03*
D10*
X1106560Y1037590D03*
X1123560Y1037590D03*
X1106560Y1054100D03*
X1123560Y1054100D03*
X1106560Y1074420D03*
X1123560Y1074420D03*
D11*
X957390Y991560D02*
X957390Y984560D01*
X950390Y984560D01*
X950390Y991560D01*
X957390Y991560D01*
X957390Y987410D02*
X950390Y987410D01*
X950390Y990260D02*
X957390Y990260D01*
X974930Y991560D02*
X974930Y984560D01*
X967930Y984560D01*
X967930Y991560D01*
X974930Y991560D01*
X974930Y987410D02*
X967930Y987410D01*
X967930Y990260D02*
X974930Y990260D01*
D12*
X1083660Y1041260D03*
D13*
X1052660Y1372260D03*
X1027260Y1372260D03*
X898060Y1372260D03*
X872660Y1372260D03*
D12*
X1083660Y1066660D03*
X1083660Y1092060D03*
X1083660Y1117460D03*
X1083660Y1142860D03*
X1083660Y1168260D03*
X1083660Y1193660D03*
X1083660Y1219060D03*
X1083660Y1244460D03*
X842360Y1041260D03*
X842360Y1066660D03*
X842360Y1092060D03*
X842360Y1117460D03*
X842360Y1142860D03*
X842360Y1168260D03*
X842360Y1193660D03*
X842360Y1219060D03*
X842360Y1244460D03*
D14*
X810260Y1081160D03*
X810260Y1098160D03*
X1115060Y1174360D03*
X1115060Y1157360D03*
X1115060Y1250560D03*
X1115060Y1233560D03*
X1115060Y1212460D03*
X1115060Y1195460D03*
D10*
X992260Y988060D03*
X1009260Y988060D03*
D15*
X1115060Y1135370D03*
X1115060Y1102370D03*
M02*
