G04 EAGLE Gerber RS-274X export*
G75*
%MOMM*%
%FSLAX34Y34*%
%LPD*%
%INSoldermask Bottom*%
%IPPOS*%
%AMOC8*
5,1,8,0,0,1.08239X$1,22.5*%
G01*
%ADD10C,0.838200*%
%ADD11C,3.505200*%
%ADD12R,0.863600X1.473200*%
%ADD13R,1.703200X4.203200*%
%ADD14C,2.082800*%
%ADD15C,1.203200*%
%ADD16C,1.270000*%
%ADD17C,1.703200*%

G36*
X1040830Y986167D02*
X1040830Y986167D01*
X1040896Y986169D01*
X1040939Y986187D01*
X1040986Y986195D01*
X1041043Y986229D01*
X1041103Y986254D01*
X1041138Y986285D01*
X1041179Y986310D01*
X1041221Y986361D01*
X1041269Y986405D01*
X1041291Y986447D01*
X1041320Y986484D01*
X1041341Y986546D01*
X1041372Y986605D01*
X1041380Y986659D01*
X1041392Y986696D01*
X1041391Y986736D01*
X1041399Y986790D01*
X1041399Y989330D01*
X1041388Y989395D01*
X1041386Y989461D01*
X1041368Y989504D01*
X1041360Y989551D01*
X1041326Y989608D01*
X1041301Y989668D01*
X1041270Y989703D01*
X1041245Y989744D01*
X1041194Y989786D01*
X1041150Y989834D01*
X1041108Y989856D01*
X1041071Y989885D01*
X1041009Y989906D01*
X1040950Y989937D01*
X1040896Y989945D01*
X1040859Y989957D01*
X1040819Y989956D01*
X1040765Y989964D01*
X1036955Y989964D01*
X1036890Y989953D01*
X1036824Y989951D01*
X1036781Y989933D01*
X1036734Y989925D01*
X1036677Y989891D01*
X1036617Y989866D01*
X1036582Y989835D01*
X1036541Y989810D01*
X1036500Y989759D01*
X1036451Y989715D01*
X1036429Y989673D01*
X1036400Y989636D01*
X1036379Y989574D01*
X1036348Y989515D01*
X1036340Y989461D01*
X1036328Y989424D01*
X1036328Y989421D01*
X1036329Y989384D01*
X1036321Y989330D01*
X1036321Y986790D01*
X1036332Y986725D01*
X1036334Y986659D01*
X1036352Y986616D01*
X1036360Y986569D01*
X1036394Y986512D01*
X1036419Y986452D01*
X1036450Y986417D01*
X1036475Y986376D01*
X1036526Y986335D01*
X1036570Y986286D01*
X1036612Y986264D01*
X1036649Y986235D01*
X1036711Y986214D01*
X1036770Y986183D01*
X1036824Y986175D01*
X1036861Y986163D01*
X1036901Y986164D01*
X1036955Y986156D01*
X1040765Y986156D01*
X1040830Y986167D01*
G37*
G36*
X654750Y986167D02*
X654750Y986167D01*
X654816Y986169D01*
X654859Y986187D01*
X654906Y986195D01*
X654963Y986229D01*
X655023Y986254D01*
X655058Y986285D01*
X655099Y986310D01*
X655141Y986361D01*
X655189Y986405D01*
X655211Y986447D01*
X655240Y986484D01*
X655261Y986546D01*
X655292Y986605D01*
X655300Y986659D01*
X655312Y986696D01*
X655311Y986736D01*
X655319Y986790D01*
X655319Y989330D01*
X655308Y989395D01*
X655306Y989461D01*
X655288Y989504D01*
X655280Y989551D01*
X655246Y989608D01*
X655221Y989668D01*
X655190Y989703D01*
X655165Y989744D01*
X655114Y989786D01*
X655070Y989834D01*
X655028Y989856D01*
X654991Y989885D01*
X654929Y989906D01*
X654870Y989937D01*
X654816Y989945D01*
X654779Y989957D01*
X654739Y989956D01*
X654685Y989964D01*
X650875Y989964D01*
X650810Y989953D01*
X650744Y989951D01*
X650701Y989933D01*
X650654Y989925D01*
X650597Y989891D01*
X650537Y989866D01*
X650502Y989835D01*
X650461Y989810D01*
X650420Y989759D01*
X650371Y989715D01*
X650349Y989673D01*
X650320Y989636D01*
X650299Y989574D01*
X650268Y989515D01*
X650260Y989461D01*
X650248Y989424D01*
X650248Y989421D01*
X650249Y989384D01*
X650241Y989330D01*
X650241Y986790D01*
X650252Y986725D01*
X650254Y986659D01*
X650272Y986616D01*
X650280Y986569D01*
X650314Y986512D01*
X650339Y986452D01*
X650370Y986417D01*
X650395Y986376D01*
X650446Y986335D01*
X650490Y986286D01*
X650532Y986264D01*
X650569Y986235D01*
X650631Y986214D01*
X650690Y986183D01*
X650744Y986175D01*
X650781Y986163D01*
X650821Y986164D01*
X650875Y986156D01*
X654685Y986156D01*
X654750Y986167D01*
G37*
G36*
X268670Y986167D02*
X268670Y986167D01*
X268736Y986169D01*
X268779Y986187D01*
X268826Y986195D01*
X268883Y986229D01*
X268943Y986254D01*
X268978Y986285D01*
X269019Y986310D01*
X269061Y986361D01*
X269109Y986405D01*
X269131Y986447D01*
X269160Y986484D01*
X269181Y986546D01*
X269212Y986605D01*
X269220Y986659D01*
X269232Y986696D01*
X269231Y986736D01*
X269239Y986790D01*
X269239Y989330D01*
X269228Y989395D01*
X269226Y989461D01*
X269208Y989504D01*
X269200Y989551D01*
X269166Y989608D01*
X269141Y989668D01*
X269110Y989703D01*
X269085Y989744D01*
X269034Y989786D01*
X268990Y989834D01*
X268948Y989856D01*
X268911Y989885D01*
X268849Y989906D01*
X268790Y989937D01*
X268736Y989945D01*
X268699Y989957D01*
X268659Y989956D01*
X268605Y989964D01*
X264795Y989964D01*
X264730Y989953D01*
X264664Y989951D01*
X264621Y989933D01*
X264574Y989925D01*
X264517Y989891D01*
X264457Y989866D01*
X264422Y989835D01*
X264381Y989810D01*
X264340Y989759D01*
X264291Y989715D01*
X264269Y989673D01*
X264240Y989636D01*
X264219Y989574D01*
X264188Y989515D01*
X264180Y989461D01*
X264168Y989424D01*
X264168Y989421D01*
X264169Y989384D01*
X264161Y989330D01*
X264161Y986790D01*
X264172Y986725D01*
X264174Y986659D01*
X264192Y986616D01*
X264200Y986569D01*
X264234Y986512D01*
X264259Y986452D01*
X264290Y986417D01*
X264315Y986376D01*
X264366Y986335D01*
X264410Y986286D01*
X264452Y986264D01*
X264489Y986235D01*
X264551Y986214D01*
X264610Y986183D01*
X264664Y986175D01*
X264701Y986163D01*
X264741Y986164D01*
X264795Y986156D01*
X268605Y986156D01*
X268670Y986167D01*
G37*
G36*
X1040830Y498487D02*
X1040830Y498487D01*
X1040896Y498489D01*
X1040939Y498507D01*
X1040986Y498515D01*
X1041043Y498549D01*
X1041103Y498574D01*
X1041138Y498605D01*
X1041179Y498630D01*
X1041221Y498681D01*
X1041269Y498725D01*
X1041291Y498767D01*
X1041320Y498804D01*
X1041341Y498866D01*
X1041372Y498925D01*
X1041380Y498979D01*
X1041392Y499016D01*
X1041391Y499056D01*
X1041399Y499110D01*
X1041399Y501650D01*
X1041388Y501715D01*
X1041386Y501781D01*
X1041368Y501824D01*
X1041360Y501871D01*
X1041326Y501928D01*
X1041301Y501988D01*
X1041270Y502023D01*
X1041245Y502064D01*
X1041194Y502106D01*
X1041150Y502154D01*
X1041108Y502176D01*
X1041071Y502205D01*
X1041009Y502226D01*
X1040950Y502257D01*
X1040896Y502265D01*
X1040859Y502277D01*
X1040819Y502276D01*
X1040765Y502284D01*
X1036955Y502284D01*
X1036890Y502273D01*
X1036824Y502271D01*
X1036781Y502253D01*
X1036734Y502245D01*
X1036677Y502211D01*
X1036617Y502186D01*
X1036582Y502155D01*
X1036541Y502130D01*
X1036500Y502079D01*
X1036451Y502035D01*
X1036429Y501993D01*
X1036400Y501956D01*
X1036379Y501894D01*
X1036348Y501835D01*
X1036340Y501781D01*
X1036328Y501744D01*
X1036328Y501741D01*
X1036329Y501704D01*
X1036321Y501650D01*
X1036321Y499110D01*
X1036332Y499045D01*
X1036334Y498979D01*
X1036352Y498936D01*
X1036360Y498889D01*
X1036394Y498832D01*
X1036419Y498772D01*
X1036450Y498737D01*
X1036475Y498696D01*
X1036526Y498655D01*
X1036570Y498606D01*
X1036612Y498584D01*
X1036649Y498555D01*
X1036711Y498534D01*
X1036770Y498503D01*
X1036824Y498495D01*
X1036861Y498483D01*
X1036901Y498484D01*
X1036955Y498476D01*
X1040765Y498476D01*
X1040830Y498487D01*
G37*
G36*
X654750Y498487D02*
X654750Y498487D01*
X654816Y498489D01*
X654859Y498507D01*
X654906Y498515D01*
X654963Y498549D01*
X655023Y498574D01*
X655058Y498605D01*
X655099Y498630D01*
X655141Y498681D01*
X655189Y498725D01*
X655211Y498767D01*
X655240Y498804D01*
X655261Y498866D01*
X655292Y498925D01*
X655300Y498979D01*
X655312Y499016D01*
X655311Y499056D01*
X655319Y499110D01*
X655319Y501650D01*
X655308Y501715D01*
X655306Y501781D01*
X655288Y501824D01*
X655280Y501871D01*
X655246Y501928D01*
X655221Y501988D01*
X655190Y502023D01*
X655165Y502064D01*
X655114Y502106D01*
X655070Y502154D01*
X655028Y502176D01*
X654991Y502205D01*
X654929Y502226D01*
X654870Y502257D01*
X654816Y502265D01*
X654779Y502277D01*
X654739Y502276D01*
X654685Y502284D01*
X650875Y502284D01*
X650810Y502273D01*
X650744Y502271D01*
X650701Y502253D01*
X650654Y502245D01*
X650597Y502211D01*
X650537Y502186D01*
X650502Y502155D01*
X650461Y502130D01*
X650420Y502079D01*
X650371Y502035D01*
X650349Y501993D01*
X650320Y501956D01*
X650299Y501894D01*
X650268Y501835D01*
X650260Y501781D01*
X650248Y501744D01*
X650248Y501741D01*
X650249Y501704D01*
X650241Y501650D01*
X650241Y499110D01*
X650252Y499045D01*
X650254Y498979D01*
X650272Y498936D01*
X650280Y498889D01*
X650314Y498832D01*
X650339Y498772D01*
X650370Y498737D01*
X650395Y498696D01*
X650446Y498655D01*
X650490Y498606D01*
X650532Y498584D01*
X650569Y498555D01*
X650631Y498534D01*
X650690Y498503D01*
X650744Y498495D01*
X650781Y498483D01*
X650821Y498484D01*
X650875Y498476D01*
X654685Y498476D01*
X654750Y498487D01*
G37*
G36*
X268670Y498487D02*
X268670Y498487D01*
X268736Y498489D01*
X268779Y498507D01*
X268826Y498515D01*
X268883Y498549D01*
X268943Y498574D01*
X268978Y498605D01*
X269019Y498630D01*
X269061Y498681D01*
X269109Y498725D01*
X269131Y498767D01*
X269160Y498804D01*
X269181Y498866D01*
X269212Y498925D01*
X269220Y498979D01*
X269232Y499016D01*
X269231Y499056D01*
X269239Y499110D01*
X269239Y501650D01*
X269228Y501715D01*
X269226Y501781D01*
X269208Y501824D01*
X269200Y501871D01*
X269166Y501928D01*
X269141Y501988D01*
X269110Y502023D01*
X269085Y502064D01*
X269034Y502106D01*
X268990Y502154D01*
X268948Y502176D01*
X268911Y502205D01*
X268849Y502226D01*
X268790Y502257D01*
X268736Y502265D01*
X268699Y502277D01*
X268659Y502276D01*
X268605Y502284D01*
X264795Y502284D01*
X264730Y502273D01*
X264664Y502271D01*
X264621Y502253D01*
X264574Y502245D01*
X264517Y502211D01*
X264457Y502186D01*
X264422Y502155D01*
X264381Y502130D01*
X264340Y502079D01*
X264291Y502035D01*
X264269Y501993D01*
X264240Y501956D01*
X264219Y501894D01*
X264188Y501835D01*
X264180Y501781D01*
X264168Y501744D01*
X264168Y501741D01*
X264169Y501704D01*
X264161Y501650D01*
X264161Y499110D01*
X264172Y499045D01*
X264174Y498979D01*
X264192Y498936D01*
X264200Y498889D01*
X264234Y498832D01*
X264259Y498772D01*
X264290Y498737D01*
X264315Y498696D01*
X264366Y498655D01*
X264410Y498606D01*
X264452Y498584D01*
X264489Y498555D01*
X264551Y498534D01*
X264610Y498503D01*
X264664Y498495D01*
X264701Y498483D01*
X264741Y498484D01*
X264795Y498476D01*
X268605Y498476D01*
X268670Y498487D01*
G37*
G36*
X1040830Y10807D02*
X1040830Y10807D01*
X1040896Y10809D01*
X1040939Y10827D01*
X1040986Y10835D01*
X1041043Y10869D01*
X1041103Y10894D01*
X1041138Y10925D01*
X1041179Y10950D01*
X1041221Y11001D01*
X1041269Y11045D01*
X1041291Y11087D01*
X1041320Y11124D01*
X1041341Y11186D01*
X1041372Y11245D01*
X1041380Y11299D01*
X1041392Y11336D01*
X1041391Y11376D01*
X1041399Y11430D01*
X1041399Y13970D01*
X1041388Y14035D01*
X1041386Y14101D01*
X1041368Y14144D01*
X1041360Y14191D01*
X1041326Y14248D01*
X1041301Y14308D01*
X1041270Y14343D01*
X1041245Y14384D01*
X1041194Y14426D01*
X1041150Y14474D01*
X1041108Y14496D01*
X1041071Y14525D01*
X1041009Y14546D01*
X1040950Y14577D01*
X1040896Y14585D01*
X1040859Y14597D01*
X1040819Y14596D01*
X1040765Y14604D01*
X1036955Y14604D01*
X1036890Y14593D01*
X1036824Y14591D01*
X1036781Y14573D01*
X1036734Y14565D01*
X1036677Y14531D01*
X1036617Y14506D01*
X1036582Y14475D01*
X1036541Y14450D01*
X1036500Y14399D01*
X1036451Y14355D01*
X1036429Y14313D01*
X1036400Y14276D01*
X1036379Y14214D01*
X1036348Y14155D01*
X1036340Y14101D01*
X1036328Y14064D01*
X1036328Y14061D01*
X1036329Y14024D01*
X1036321Y13970D01*
X1036321Y11430D01*
X1036332Y11365D01*
X1036334Y11299D01*
X1036352Y11256D01*
X1036360Y11209D01*
X1036394Y11152D01*
X1036419Y11092D01*
X1036450Y11057D01*
X1036475Y11016D01*
X1036526Y10975D01*
X1036570Y10926D01*
X1036612Y10904D01*
X1036649Y10875D01*
X1036711Y10854D01*
X1036770Y10823D01*
X1036824Y10815D01*
X1036861Y10803D01*
X1036901Y10804D01*
X1036955Y10796D01*
X1040765Y10796D01*
X1040830Y10807D01*
G37*
G36*
X654750Y10807D02*
X654750Y10807D01*
X654816Y10809D01*
X654859Y10827D01*
X654906Y10835D01*
X654963Y10869D01*
X655023Y10894D01*
X655058Y10925D01*
X655099Y10950D01*
X655141Y11001D01*
X655189Y11045D01*
X655211Y11087D01*
X655240Y11124D01*
X655261Y11186D01*
X655292Y11245D01*
X655300Y11299D01*
X655312Y11336D01*
X655311Y11376D01*
X655319Y11430D01*
X655319Y13970D01*
X655308Y14035D01*
X655306Y14101D01*
X655288Y14144D01*
X655280Y14191D01*
X655246Y14248D01*
X655221Y14308D01*
X655190Y14343D01*
X655165Y14384D01*
X655114Y14426D01*
X655070Y14474D01*
X655028Y14496D01*
X654991Y14525D01*
X654929Y14546D01*
X654870Y14577D01*
X654816Y14585D01*
X654779Y14597D01*
X654739Y14596D01*
X654685Y14604D01*
X650875Y14604D01*
X650810Y14593D01*
X650744Y14591D01*
X650701Y14573D01*
X650654Y14565D01*
X650597Y14531D01*
X650537Y14506D01*
X650502Y14475D01*
X650461Y14450D01*
X650420Y14399D01*
X650371Y14355D01*
X650349Y14313D01*
X650320Y14276D01*
X650299Y14214D01*
X650268Y14155D01*
X650260Y14101D01*
X650248Y14064D01*
X650248Y14061D01*
X650249Y14024D01*
X650241Y13970D01*
X650241Y11430D01*
X650252Y11365D01*
X650254Y11299D01*
X650272Y11256D01*
X650280Y11209D01*
X650314Y11152D01*
X650339Y11092D01*
X650370Y11057D01*
X650395Y11016D01*
X650446Y10975D01*
X650490Y10926D01*
X650532Y10904D01*
X650569Y10875D01*
X650631Y10854D01*
X650690Y10823D01*
X650744Y10815D01*
X650781Y10803D01*
X650821Y10804D01*
X650875Y10796D01*
X654685Y10796D01*
X654750Y10807D01*
G37*
G36*
X268670Y10807D02*
X268670Y10807D01*
X268736Y10809D01*
X268779Y10827D01*
X268826Y10835D01*
X268883Y10869D01*
X268943Y10894D01*
X268978Y10925D01*
X269019Y10950D01*
X269061Y11001D01*
X269109Y11045D01*
X269131Y11087D01*
X269160Y11124D01*
X269181Y11186D01*
X269212Y11245D01*
X269220Y11299D01*
X269232Y11336D01*
X269231Y11376D01*
X269239Y11430D01*
X269239Y13970D01*
X269228Y14035D01*
X269226Y14101D01*
X269208Y14144D01*
X269200Y14191D01*
X269166Y14248D01*
X269141Y14308D01*
X269110Y14343D01*
X269085Y14384D01*
X269034Y14426D01*
X268990Y14474D01*
X268948Y14496D01*
X268911Y14525D01*
X268849Y14546D01*
X268790Y14577D01*
X268736Y14585D01*
X268699Y14597D01*
X268659Y14596D01*
X268605Y14604D01*
X264795Y14604D01*
X264730Y14593D01*
X264664Y14591D01*
X264621Y14573D01*
X264574Y14565D01*
X264517Y14531D01*
X264457Y14506D01*
X264422Y14475D01*
X264381Y14450D01*
X264340Y14399D01*
X264291Y14355D01*
X264269Y14313D01*
X264240Y14276D01*
X264219Y14214D01*
X264188Y14155D01*
X264180Y14101D01*
X264168Y14064D01*
X264168Y14061D01*
X264169Y14024D01*
X264161Y13970D01*
X264161Y11430D01*
X264172Y11365D01*
X264174Y11299D01*
X264192Y11256D01*
X264200Y11209D01*
X264234Y11152D01*
X264259Y11092D01*
X264290Y11057D01*
X264315Y11016D01*
X264366Y10975D01*
X264410Y10926D01*
X264452Y10904D01*
X264489Y10875D01*
X264551Y10854D01*
X264610Y10823D01*
X264664Y10815D01*
X264701Y10803D01*
X264741Y10804D01*
X264795Y10796D01*
X268605Y10796D01*
X268670Y10807D01*
G37*
D10*
X373380Y7620D03*
X6350Y474980D03*
D11*
X25400Y457200D03*
X25400Y25400D03*
X355600Y457200D03*
X355600Y25400D03*
D12*
X261493Y12700D03*
X271907Y12700D03*
D13*
X255270Y447040D03*
X306070Y447040D03*
D14*
X368300Y266700D03*
X368300Y241300D03*
X368300Y215900D03*
X368300Y190500D03*
X368300Y165100D03*
X368300Y139700D03*
X368300Y114300D03*
X368300Y88900D03*
X368300Y63500D03*
X12700Y266700D03*
X12700Y241300D03*
X12700Y215900D03*
X12700Y190500D03*
X12700Y165100D03*
X12700Y139700D03*
X12700Y114300D03*
X12700Y88900D03*
X12700Y63500D03*
D10*
X759460Y7620D03*
X392430Y474980D03*
D11*
X411480Y457200D03*
X411480Y25400D03*
X741680Y457200D03*
X741680Y25400D03*
D12*
X647573Y12700D03*
X657987Y12700D03*
D13*
X641350Y447040D03*
X692150Y447040D03*
D14*
X754380Y266700D03*
X754380Y241300D03*
X754380Y215900D03*
X754380Y190500D03*
X754380Y165100D03*
X754380Y139700D03*
X754380Y114300D03*
X754380Y88900D03*
X754380Y63500D03*
X398780Y266700D03*
X398780Y241300D03*
X398780Y215900D03*
X398780Y190500D03*
X398780Y165100D03*
X398780Y139700D03*
X398780Y114300D03*
X398780Y88900D03*
X398780Y63500D03*
D10*
X1145540Y7620D03*
X778510Y474980D03*
D11*
X797560Y457200D03*
X797560Y25400D03*
X1127760Y457200D03*
X1127760Y25400D03*
D12*
X1033653Y12700D03*
X1044067Y12700D03*
D13*
X1027430Y447040D03*
X1078230Y447040D03*
D14*
X1140460Y266700D03*
X1140460Y241300D03*
X1140460Y215900D03*
X1140460Y190500D03*
X1140460Y165100D03*
X1140460Y139700D03*
X1140460Y114300D03*
X1140460Y88900D03*
X1140460Y63500D03*
X784860Y266700D03*
X784860Y241300D03*
X784860Y215900D03*
X784860Y190500D03*
X784860Y165100D03*
X784860Y139700D03*
X784860Y114300D03*
X784860Y88900D03*
X784860Y63500D03*
D10*
X373380Y495300D03*
X6350Y962660D03*
D11*
X25400Y944880D03*
X25400Y513080D03*
X355600Y944880D03*
X355600Y513080D03*
D12*
X261493Y500380D03*
X271907Y500380D03*
D13*
X255270Y934720D03*
X306070Y934720D03*
D14*
X368300Y754380D03*
X368300Y728980D03*
X368300Y703580D03*
X368300Y678180D03*
X368300Y652780D03*
X368300Y627380D03*
X368300Y601980D03*
X368300Y576580D03*
X368300Y551180D03*
X12700Y754380D03*
X12700Y728980D03*
X12700Y703580D03*
X12700Y678180D03*
X12700Y652780D03*
X12700Y627380D03*
X12700Y601980D03*
X12700Y576580D03*
X12700Y551180D03*
D10*
X759460Y495300D03*
X392430Y962660D03*
D11*
X411480Y944880D03*
X411480Y513080D03*
X741680Y944880D03*
X741680Y513080D03*
D12*
X647573Y500380D03*
X657987Y500380D03*
D13*
X641350Y934720D03*
X692150Y934720D03*
D14*
X754380Y754380D03*
X754380Y728980D03*
X754380Y703580D03*
X754380Y678180D03*
X754380Y652780D03*
X754380Y627380D03*
X754380Y601980D03*
X754380Y576580D03*
X754380Y551180D03*
X398780Y754380D03*
X398780Y728980D03*
X398780Y703580D03*
X398780Y678180D03*
X398780Y652780D03*
X398780Y627380D03*
X398780Y601980D03*
X398780Y576580D03*
X398780Y551180D03*
D10*
X1145540Y495300D03*
X778510Y962660D03*
D11*
X797560Y944880D03*
X797560Y513080D03*
X1127760Y944880D03*
X1127760Y513080D03*
D12*
X1033653Y500380D03*
X1044067Y500380D03*
D13*
X1027430Y934720D03*
X1078230Y934720D03*
D14*
X1140460Y754380D03*
X1140460Y728980D03*
X1140460Y703580D03*
X1140460Y678180D03*
X1140460Y652780D03*
X1140460Y627380D03*
X1140460Y601980D03*
X1140460Y576580D03*
X1140460Y551180D03*
X784860Y754380D03*
X784860Y728980D03*
X784860Y703580D03*
X784860Y678180D03*
X784860Y652780D03*
X784860Y627380D03*
X784860Y601980D03*
X784860Y576580D03*
X784860Y551180D03*
D10*
X373380Y982980D03*
X6350Y1450340D03*
D11*
X25400Y1432560D03*
X25400Y1000760D03*
X355600Y1432560D03*
X355600Y1000760D03*
D12*
X261493Y988060D03*
X271907Y988060D03*
D13*
X255270Y1422400D03*
X306070Y1422400D03*
D14*
X368300Y1242060D03*
X368300Y1216660D03*
X368300Y1191260D03*
X368300Y1165860D03*
X368300Y1140460D03*
X368300Y1115060D03*
X368300Y1089660D03*
X368300Y1064260D03*
X368300Y1038860D03*
X12700Y1242060D03*
X12700Y1216660D03*
X12700Y1191260D03*
X12700Y1165860D03*
X12700Y1140460D03*
X12700Y1115060D03*
X12700Y1089660D03*
X12700Y1064260D03*
X12700Y1038860D03*
D10*
X759460Y982980D03*
X392430Y1450340D03*
D11*
X411480Y1432560D03*
X411480Y1000760D03*
X741680Y1432560D03*
X741680Y1000760D03*
D12*
X647573Y988060D03*
X657987Y988060D03*
D13*
X641350Y1422400D03*
X692150Y1422400D03*
D14*
X754380Y1242060D03*
X754380Y1216660D03*
X754380Y1191260D03*
X754380Y1165860D03*
X754380Y1140460D03*
X754380Y1115060D03*
X754380Y1089660D03*
X754380Y1064260D03*
X754380Y1038860D03*
X398780Y1242060D03*
X398780Y1216660D03*
X398780Y1191260D03*
X398780Y1165860D03*
X398780Y1140460D03*
X398780Y1115060D03*
X398780Y1089660D03*
X398780Y1064260D03*
X398780Y1038860D03*
D10*
X1145540Y982980D03*
X778510Y1450340D03*
D11*
X797560Y1432560D03*
X797560Y1000760D03*
X1127760Y1432560D03*
X1127760Y1000760D03*
D12*
X1033653Y988060D03*
X1044067Y988060D03*
D13*
X1027430Y1422400D03*
X1078230Y1422400D03*
D14*
X1140460Y1242060D03*
X1140460Y1216660D03*
X1140460Y1191260D03*
X1140460Y1165860D03*
X1140460Y1140460D03*
X1140460Y1115060D03*
X1140460Y1089660D03*
X1140460Y1064260D03*
X1140460Y1038860D03*
X784860Y1242060D03*
X784860Y1216660D03*
X784860Y1191260D03*
X784860Y1165860D03*
X784860Y1140460D03*
X784860Y1115060D03*
X784860Y1089660D03*
X784860Y1064260D03*
X784860Y1038860D03*
D15*
X-26238Y1431290D03*
X1179398Y1431290D03*
D16*
X-35293Y63500D02*
X-35290Y63722D01*
X-35282Y63944D01*
X-35268Y64166D01*
X-35249Y64388D01*
X-35225Y64608D01*
X-35195Y64829D01*
X-35160Y65048D01*
X-35119Y65267D01*
X-35073Y65484D01*
X-35022Y65700D01*
X-34965Y65915D01*
X-34903Y66129D01*
X-34836Y66340D01*
X-34764Y66551D01*
X-34686Y66759D01*
X-34604Y66965D01*
X-34516Y67169D01*
X-34424Y67372D01*
X-34326Y67571D01*
X-34224Y67768D01*
X-34117Y67963D01*
X-34005Y68155D01*
X-33888Y68344D01*
X-33767Y68531D01*
X-33641Y68714D01*
X-33511Y68894D01*
X-33376Y69071D01*
X-33238Y69244D01*
X-33095Y69414D01*
X-32947Y69581D01*
X-32796Y69744D01*
X-32641Y69903D01*
X-32482Y70058D01*
X-32319Y70209D01*
X-32152Y70357D01*
X-31982Y70500D01*
X-31809Y70638D01*
X-31632Y70773D01*
X-31452Y70903D01*
X-31269Y71029D01*
X-31082Y71150D01*
X-30893Y71267D01*
X-30701Y71379D01*
X-30506Y71486D01*
X-30309Y71588D01*
X-30110Y71686D01*
X-29907Y71778D01*
X-29703Y71866D01*
X-29497Y71948D01*
X-29289Y72026D01*
X-29078Y72098D01*
X-28867Y72165D01*
X-28653Y72227D01*
X-28438Y72284D01*
X-28222Y72335D01*
X-28005Y72381D01*
X-27786Y72422D01*
X-27567Y72457D01*
X-27346Y72487D01*
X-27126Y72511D01*
X-26904Y72530D01*
X-26682Y72544D01*
X-26460Y72552D01*
X-26238Y72555D01*
X-26016Y72552D01*
X-25794Y72544D01*
X-25572Y72530D01*
X-25350Y72511D01*
X-25130Y72487D01*
X-24909Y72457D01*
X-24690Y72422D01*
X-24471Y72381D01*
X-24254Y72335D01*
X-24038Y72284D01*
X-23823Y72227D01*
X-23609Y72165D01*
X-23398Y72098D01*
X-23187Y72026D01*
X-22979Y71948D01*
X-22773Y71866D01*
X-22569Y71778D01*
X-22366Y71686D01*
X-22167Y71588D01*
X-21970Y71486D01*
X-21775Y71379D01*
X-21583Y71267D01*
X-21394Y71150D01*
X-21207Y71029D01*
X-21024Y70903D01*
X-20844Y70773D01*
X-20667Y70638D01*
X-20494Y70500D01*
X-20324Y70357D01*
X-20157Y70209D01*
X-19994Y70058D01*
X-19835Y69903D01*
X-19680Y69744D01*
X-19529Y69581D01*
X-19381Y69414D01*
X-19238Y69244D01*
X-19100Y69071D01*
X-18965Y68894D01*
X-18835Y68714D01*
X-18709Y68531D01*
X-18588Y68344D01*
X-18471Y68155D01*
X-18359Y67963D01*
X-18252Y67768D01*
X-18150Y67571D01*
X-18052Y67372D01*
X-17960Y67169D01*
X-17872Y66965D01*
X-17790Y66759D01*
X-17712Y66551D01*
X-17640Y66340D01*
X-17573Y66129D01*
X-17511Y65915D01*
X-17454Y65700D01*
X-17403Y65484D01*
X-17357Y65267D01*
X-17316Y65048D01*
X-17281Y64829D01*
X-17251Y64608D01*
X-17227Y64388D01*
X-17208Y64166D01*
X-17194Y63944D01*
X-17186Y63722D01*
X-17183Y63500D01*
X-17186Y63278D01*
X-17194Y63056D01*
X-17208Y62834D01*
X-17227Y62612D01*
X-17251Y62392D01*
X-17281Y62171D01*
X-17316Y61952D01*
X-17357Y61733D01*
X-17403Y61516D01*
X-17454Y61300D01*
X-17511Y61085D01*
X-17573Y60871D01*
X-17640Y60660D01*
X-17712Y60449D01*
X-17790Y60241D01*
X-17872Y60035D01*
X-17960Y59831D01*
X-18052Y59628D01*
X-18150Y59429D01*
X-18252Y59232D01*
X-18359Y59037D01*
X-18471Y58845D01*
X-18588Y58656D01*
X-18709Y58469D01*
X-18835Y58286D01*
X-18965Y58106D01*
X-19100Y57929D01*
X-19238Y57756D01*
X-19381Y57586D01*
X-19529Y57419D01*
X-19680Y57256D01*
X-19835Y57097D01*
X-19994Y56942D01*
X-20157Y56791D01*
X-20324Y56643D01*
X-20494Y56500D01*
X-20667Y56362D01*
X-20844Y56227D01*
X-21024Y56097D01*
X-21207Y55971D01*
X-21394Y55850D01*
X-21583Y55733D01*
X-21775Y55621D01*
X-21970Y55514D01*
X-22167Y55412D01*
X-22366Y55314D01*
X-22569Y55222D01*
X-22773Y55134D01*
X-22979Y55052D01*
X-23187Y54974D01*
X-23398Y54902D01*
X-23609Y54835D01*
X-23823Y54773D01*
X-24038Y54716D01*
X-24254Y54665D01*
X-24471Y54619D01*
X-24690Y54578D01*
X-24909Y54543D01*
X-25130Y54513D01*
X-25350Y54489D01*
X-25572Y54470D01*
X-25794Y54456D01*
X-26016Y54448D01*
X-26238Y54445D01*
X-26460Y54448D01*
X-26682Y54456D01*
X-26904Y54470D01*
X-27126Y54489D01*
X-27346Y54513D01*
X-27567Y54543D01*
X-27786Y54578D01*
X-28005Y54619D01*
X-28222Y54665D01*
X-28438Y54716D01*
X-28653Y54773D01*
X-28867Y54835D01*
X-29078Y54902D01*
X-29289Y54974D01*
X-29497Y55052D01*
X-29703Y55134D01*
X-29907Y55222D01*
X-30110Y55314D01*
X-30309Y55412D01*
X-30506Y55514D01*
X-30701Y55621D01*
X-30893Y55733D01*
X-31082Y55850D01*
X-31269Y55971D01*
X-31452Y56097D01*
X-31632Y56227D01*
X-31809Y56362D01*
X-31982Y56500D01*
X-32152Y56643D01*
X-32319Y56791D01*
X-32482Y56942D01*
X-32641Y57097D01*
X-32796Y57256D01*
X-32947Y57419D01*
X-33095Y57586D01*
X-33238Y57756D01*
X-33376Y57929D01*
X-33511Y58106D01*
X-33641Y58286D01*
X-33767Y58469D01*
X-33888Y58656D01*
X-34005Y58845D01*
X-34117Y59037D01*
X-34224Y59232D01*
X-34326Y59429D01*
X-34424Y59628D01*
X-34516Y59831D01*
X-34604Y60035D01*
X-34686Y60241D01*
X-34764Y60449D01*
X-34836Y60660D01*
X-34903Y60871D01*
X-34965Y61085D01*
X-35022Y61300D01*
X-35073Y61516D01*
X-35119Y61733D01*
X-35160Y61952D01*
X-35195Y62171D01*
X-35225Y62392D01*
X-35249Y62612D01*
X-35268Y62834D01*
X-35282Y63056D01*
X-35290Y63278D01*
X-35293Y63500D01*
D17*
X-26238Y63500D03*
M02*
